<svg width="238" height="238" viewBox="0 0 238 238" fill="none" xmlns="http://www.w3.org/2000/svg">
<path d="M205.465 56.0654C206.597 55.5657 207.557 54.7452 208.227 53.7055C208.897 52.6658 209.247 51.4525 209.235 50.2157C209.235 46.722 206.603 43.8804 203.328 43.8661C200.053 43.8519 197.388 46.6696 197.373 50.1633C197.35 51.4103 197.697 52.6363 198.369 53.6866C199.042 54.737 200.01 55.5647 201.153 56.0654C192.028 57.441 192.442 67.3604 192.442 67.3604L214.018 67.4603C214.018 67.4603 214.513 57.4315 205.465 56.0654Z" fill="#F5F5F5"/>
<path d="M77.9746 19.0011L63.8714 14.0128L49.9062 18.9344C48.126 19.7626 46.5744 20.2576 46.5744 21.895V30.039C46.5569 35.7588 48.1521 41.3677 51.1771 46.2222C54.2217 51.1702 58.7057 55.0697 64.0284 57.3981C69.7402 55.5704 73.9954 50.7059 76.6038 46.5411C79.6252 41.6852 81.2186 36.0769 81.2017 30.3579V23.0326C81.1827 20.7003 79.9261 19.5627 77.9746 19.0011Z" fill="#F5F5F5"/>
<path d="M68.5413 32.1475C68.5447 31.4207 68.3451 30.7074 67.965 30.088C67.5848 29.4685 67.0393 28.9675 66.3898 28.6414C65.7403 28.3152 65.0127 28.1769 64.2888 28.242C63.5649 28.3071 62.8736 28.573 62.2927 29.0098C61.7118 29.4466 61.2644 30.0369 61.0009 30.7142C60.7374 31.3915 60.6683 32.129 60.8012 32.8435C60.9342 33.558 61.2641 34.2212 61.7536 34.7584C62.2432 35.2955 62.873 35.6853 63.5721 35.8839V41.7241H65.7045V35.8839C66.5197 35.6548 67.2378 35.166 67.7498 34.4916C68.2618 33.8173 68.5397 32.9942 68.5413 32.1475Z" fill="#EBEBEB"/>
<path d="M197.882 94.4768L200.286 95.7809L199.205 97.5897L196.778 96.1617L196.826 98.832H194.75V96.1379L192.347 97.5754L191.285 95.7667L193.689 94.4625L191.285 93.1393L192.347 91.3306L194.769 92.8156V90.1216H196.845L196.797 92.8156L199.224 91.3591L200.305 93.1678L197.882 94.4768Z" fill="#E0E0E0"/>
<path d="M207.897 94.4768L210.301 95.7809L209.22 97.5897L206.793 96.1617L206.84 98.832H204.765L204.789 96.1379L202.361 97.5944L201.3 95.7857L203.703 94.4815L201.3 93.1583L202.361 91.3496L204.789 92.8061L204.765 90.1121H206.84L206.793 92.8061L209.22 91.3496L210.301 93.1583L207.897 94.4768Z" fill="#E0E0E0"/>
<path d="M217.912 94.4768L220.321 95.7809L219.24 97.5897L216.813 96.1617L216.856 98.832H214.781L214.804 96.1379L212.377 97.5944L211.315 95.7857L213.724 94.4815L211.334 93.1536L212.396 91.3448L214.823 92.8013L214.8 90.1073H216.875L216.832 92.8013L219.259 91.3448L220.34 93.1536L217.912 94.4768Z" fill="#E0E0E0"/>
<path d="M116.015 208.411V223.195H137.634H161.48V208.411H116.015Z" fill="#F5F5F5"/>
<path d="M114.106 204.275V208.411H163.07V204.275H137.634H114.106Z" fill="#EBEBEB"/>
<path d="M138.586 223.195H161.48V208.411H163.07V204.275H137.634V208.026L138.586 223.195Z" fill="#EBEBEB"/>
<path d="M131.594 210.791H122.374V213.019H131.594V210.791Z" fill="#E0E0E0"/>
<path d="M133.026 215.803H121.184V220.501H133.026V215.803Z" fill="white"/>
<path d="M123.007 189.51V204.294H144.63H168.477V189.51H123.007Z" fill="#F5F5F5"/>
<path d="M121.098 185.374V189.51H170.066V185.374H144.63H121.098Z" fill="#EBEBEB"/>
<path d="M145.582 204.294H168.476V189.51H170.066V185.374H144.63V189.129L145.582 204.294Z" fill="#EBEBEB"/>
<path d="M138.586 191.895H129.366V194.123H138.586V191.895Z" fill="#E0E0E0"/>
<path d="M140.023 196.902H128.181V201.6H140.023V196.902Z" fill="white"/>
<path d="M220.886 223.309C220.886 223.376 175.264 223.433 118.999 223.433C62.7335 223.433 17.1016 223.376 17.1016 223.309C17.1016 223.243 62.7144 223.186 118.999 223.186C175.283 223.186 220.886 223.233 220.886 223.309Z" fill="#263238"/>
<path d="M189.814 116.957H118.884C117.207 116.957 115.848 118.317 115.848 119.994V156.711C115.848 158.388 117.207 159.747 118.884 159.747H189.814C191.492 159.747 192.851 158.388 192.851 156.711V119.994C192.851 118.317 191.492 116.957 189.814 116.957Z" fill="white"/>
<path d="M189.819 159.747C189.819 159.747 190.024 159.747 190.414 159.676C190.993 159.551 191.523 159.262 191.942 158.843C192.248 158.535 192.483 158.165 192.632 157.758C192.718 157.523 192.775 157.278 192.804 157.03C192.804 156.773 192.804 156.497 192.804 156.211C192.804 155.069 192.804 153.75 192.804 152.27C192.804 146.334 192.78 137.757 192.766 127.157C192.766 125.829 192.766 124.473 192.766 123.088V120.984C192.766 120.275 192.837 119.556 192.547 118.899C192.346 118.402 192.014 117.969 191.585 117.646C191.157 117.324 190.648 117.125 190.114 117.071C189.762 117.048 189.372 117.071 189.001 117.071H184.407H164.502H118.894C118.408 117.07 117.93 117.191 117.503 117.422C117.075 117.653 116.713 117.988 116.447 118.395C116.177 118.798 116.014 119.263 115.972 119.746C115.948 120.222 115.972 120.746 115.972 121.241V138.843C115.972 142.65 115.972 146.395 115.972 150.076V155.521C115.972 155.968 115.972 156.42 115.972 156.858C115.993 157.287 116.107 157.706 116.305 158.086C116.508 158.46 116.789 158.786 117.129 159.041C117.469 159.297 117.86 159.476 118.275 159.567C118.698 159.635 119.128 159.657 119.556 159.633H138.152H155.497L180.609 159.671L187.435 159.695L180.609 159.719L155.497 159.757H138.152H119.556C119.112 159.78 118.667 159.756 118.228 159.686C117.779 159.589 117.357 159.396 116.99 159.12C116.624 158.843 116.322 158.491 116.105 158.086C115.886 157.678 115.761 157.226 115.738 156.763C115.738 156.287 115.738 155.868 115.738 155.416C115.738 153.622 115.738 151.803 115.738 149.971V138.843C115.738 135.035 115.738 131.156 115.738 127.205V121.255C115.738 120.751 115.738 120.265 115.738 119.742C115.774 119.221 115.937 118.718 116.214 118.276C116.504 117.836 116.896 117.473 117.357 117.219C117.823 116.971 118.342 116.839 118.87 116.833H164.478H184.384H188.977C189.358 116.833 189.719 116.833 190.11 116.833C190.491 116.873 190.862 116.983 191.204 117.157C191.884 117.502 192.416 118.08 192.704 118.785C192.843 119.13 192.917 119.498 192.923 119.87C192.923 120.227 192.923 120.584 192.923 120.941V123.045C192.923 124.428 192.923 125.785 192.923 127.114C192.923 137.714 192.889 146.292 192.88 152.227C192.88 153.707 192.88 155.026 192.88 156.168C192.88 156.454 192.88 156.725 192.88 156.992C192.849 157.245 192.789 157.495 192.699 157.734C192.545 158.148 192.303 158.523 191.99 158.834C191.561 159.255 191.018 159.541 190.429 159.657C190.281 159.685 190.131 159.701 189.981 159.705L189.819 159.747Z" fill="#263238"/>
<path d="M142.679 132.079V132.612H140.451V129.756H142.622V130.289H141.113V130.894H142.446V131.413H141.113V132.079H142.679Z" fill="#263238"/>
<path d="M145.849 129.737V132.593H145.302L143.874 130.846V132.593H143.217V129.737H143.745L145.173 131.484V129.737H145.849Z" fill="#263238"/>
<path d="M147.129 130.28H146.206V129.737H148.714V130.28H147.791V132.612H147.129V130.28Z" fill="#263238"/>
<path d="M151.299 132.079V132.612H149.071V129.756H151.247V130.289H149.733V130.894H151.07V131.413H149.733V132.079H151.299Z" fill="#263238"/>
<path d="M153.664 132.612L153.107 131.812H152.498V132.612H151.836V129.756H153.083C153.849 129.756 154.33 130.151 154.33 130.798C154.336 130.992 154.282 131.183 154.177 131.345C154.072 131.508 153.919 131.634 153.74 131.708L154.382 132.631L153.664 132.612ZM153.04 130.28H152.498V131.279H153.04C153.445 131.279 153.649 131.094 153.649 130.779C153.649 130.465 153.445 130.28 153.04 130.28Z" fill="#263238"/>
<path d="M155.835 131.175C155.854 130.864 155.963 130.567 156.15 130.318C156.336 130.07 156.592 129.881 156.884 129.777C157.177 129.672 157.494 129.656 157.795 129.73C158.097 129.805 158.371 129.966 158.581 130.194L158.153 130.589C158.064 130.484 157.953 130.399 157.828 130.341C157.703 130.282 157.567 130.252 157.429 130.251C157.197 130.268 156.979 130.372 156.82 130.543C156.661 130.714 156.572 130.939 156.572 131.172C156.572 131.406 156.661 131.63 156.82 131.801C156.979 131.972 157.197 132.076 157.429 132.093C157.568 132.095 157.705 132.066 157.83 132.007C157.955 131.949 158.066 131.863 158.153 131.755L158.581 132.15C158.372 132.381 158.099 132.544 157.797 132.619C157.495 132.695 157.177 132.68 156.884 132.576C156.59 132.471 156.334 132.283 156.148 132.034C155.961 131.784 155.852 131.485 155.835 131.175Z" fill="#263238"/>
<path d="M158.79 131.175C158.773 130.86 158.851 130.547 159.014 130.277C159.176 130.006 159.416 129.791 159.702 129.659C159.989 129.527 160.308 129.483 160.619 129.534C160.93 129.585 161.219 129.729 161.448 129.946C161.677 130.163 161.835 130.444 161.903 130.752C161.97 131.06 161.944 131.381 161.827 131.674C161.709 131.966 161.507 132.217 161.246 132.394C160.985 132.571 160.677 132.665 160.361 132.664C160.159 132.676 159.956 132.646 159.765 132.577C159.575 132.507 159.401 132.399 159.253 132.259C159.106 132.12 158.989 131.951 158.91 131.765C158.83 131.578 158.789 131.377 158.79 131.175ZM161.261 131.175C161.257 130.998 161.201 130.826 161.1 130.68C160.999 130.535 160.857 130.422 160.692 130.357C160.528 130.292 160.347 130.277 160.174 130.314C160.001 130.351 159.843 130.438 159.719 130.564C159.595 130.691 159.511 130.851 159.478 131.025C159.445 131.199 159.463 131.379 159.532 131.542C159.601 131.705 159.716 131.845 159.863 131.943C160.011 132.041 160.184 132.093 160.361 132.093C160.482 132.096 160.601 132.074 160.713 132.028C160.825 131.983 160.926 131.915 161.01 131.829C161.094 131.743 161.16 131.64 161.203 131.528C161.246 131.415 161.266 131.295 161.261 131.175Z" fill="#263238"/>
<path d="M162.441 129.737H163.736C164.115 129.737 164.478 129.887 164.746 130.155C165.013 130.423 165.164 130.786 165.164 131.165C165.164 131.544 165.013 131.907 164.746 132.175C164.478 132.442 164.115 132.593 163.736 132.593H162.432L162.441 129.737ZM163.712 132.065C163.948 132.065 164.174 131.971 164.341 131.804C164.508 131.637 164.602 131.411 164.602 131.175C164.602 130.938 164.508 130.712 164.341 130.545C164.174 130.378 163.948 130.284 163.712 130.284H163.108V132.065H163.712Z" fill="#263238"/>
<path d="M168.063 132.079V132.612H165.835V129.756H168.02V130.289H166.497V130.894H167.834V131.413H166.497V132.079H168.063Z" fill="#263238"/>
<path d="M131.76 137.205H124.768C123.729 137.205 122.888 138.047 122.888 139.085V149.971C122.888 151.009 123.729 151.851 124.768 151.851H131.76C132.798 151.851 133.64 151.009 133.64 149.971V139.085C133.64 138.047 132.798 137.205 131.76 137.205Z" fill="#EBEBEB"/>
<path d="M145.187 137.205H138.195C137.156 137.205 136.314 138.047 136.314 139.085V149.971C136.314 151.009 137.156 151.851 138.195 151.851H145.187C146.225 151.851 147.067 151.009 147.067 149.971V139.085C147.067 138.047 146.225 137.205 145.187 137.205Z" fill="#EBEBEB"/>
<path d="M158.614 137.205H151.622C150.584 137.205 149.742 138.047 149.742 139.085V149.971C149.742 151.009 150.584 151.851 151.622 151.851H158.614C159.653 151.851 160.495 151.009 160.495 149.971V139.085C160.495 138.047 159.653 137.205 158.614 137.205Z" fill="#EBEBEB"/>
<path d="M172.036 137.205H165.044C164.006 137.205 163.164 138.047 163.164 139.085V149.971C163.164 151.009 164.006 151.851 165.044 151.851H172.036C173.075 151.851 173.916 151.009 173.916 149.971V139.085C173.916 138.047 173.075 137.205 172.036 137.205Z" fill="#EBEBEB"/>
<path d="M185.464 137.205H178.472C177.434 137.205 176.592 138.047 176.592 139.085V149.971C176.592 151.009 177.434 151.851 178.472 151.851H185.464C186.502 151.851 187.344 151.009 187.344 149.971V139.085C187.344 138.047 186.502 137.205 185.464 137.205Z" fill="#EBEBEB"/>
<path d="M130.608 145.649C130.608 146.691 129.799 147.372 128.704 147.372C127.2 147.372 126.405 146.292 126.405 144.516C126.405 142.584 127.438 141.584 128.947 141.584C129.399 141.564 129.848 141.666 130.246 141.879L130.075 142.213C129.73 142.023 129.34 141.933 128.947 141.951C127.667 141.951 126.824 142.793 126.824 144.454C126.824 144.684 126.84 144.913 126.872 145.14C127.006 144.772 127.256 144.458 127.585 144.245C127.915 144.033 128.304 143.934 128.695 143.964C129.837 143.964 130.608 144.63 130.608 145.649ZM130.189 145.649C130.189 144.835 129.604 144.302 128.638 144.302C128.442 144.28 128.245 144.299 128.057 144.357C127.87 144.415 127.696 144.511 127.547 144.64C127.399 144.768 127.278 144.925 127.193 145.102C127.108 145.279 127.06 145.472 127.053 145.668C127.053 146.339 127.614 147.006 128.685 147.006C128.875 147.026 129.068 147.007 129.25 146.948C129.432 146.889 129.599 146.793 129.741 146.664C129.883 146.536 129.997 146.38 130.074 146.205C130.151 146.03 130.19 145.84 130.189 145.649Z" fill="#333C99"/>
<path d="M143.888 145.759H142.688V147.344H142.279V145.759H139.019V145.459L142.122 141.627H142.598L139.552 145.392H142.298V143.997H142.698V145.392H143.897L143.888 145.759Z" fill="#333C99"/>
<path d="M157.733 148.157C156.076 148.322 154.407 148.322 152.75 148.157C154.407 147.992 156.076 147.992 157.733 148.157Z" fill="#333C99"/>
<path d="M120.736 122.397C121.38 122.397 121.903 121.875 121.903 121.231C121.903 120.587 121.38 120.065 120.736 120.065C120.092 120.065 119.57 120.587 119.57 121.231C119.57 121.875 120.092 122.397 120.736 122.397Z" fill="#263238"/>
<path d="M125.263 121.231C125.263 121.462 125.195 121.687 125.066 121.879C124.938 122.071 124.756 122.22 124.543 122.309C124.33 122.397 124.096 122.42 123.869 122.375C123.643 122.33 123.435 122.219 123.272 122.056C123.109 121.893 122.998 121.685 122.953 121.459C122.908 121.233 122.931 120.998 123.019 120.785C123.108 120.572 123.257 120.39 123.449 120.262C123.641 120.134 123.866 120.065 124.097 120.065C124.406 120.065 124.703 120.188 124.921 120.407C125.14 120.625 125.263 120.922 125.263 121.231Z" fill="#263238"/>
<path d="M127.396 122.397C128.04 122.397 128.562 121.875 128.562 121.231C128.562 120.587 128.04 120.065 127.396 120.065C126.752 120.065 126.229 120.587 126.229 121.231C126.229 121.875 126.752 122.397 127.396 122.397Z" fill="#263238"/>
<path d="M192.97 124.516C192.97 124.582 175.725 124.639 154.464 124.639C133.202 124.639 115.957 124.582 115.957 124.516C115.957 124.449 133.192 124.392 154.464 124.392C175.735 124.392 192.97 124.444 192.97 124.516Z" fill="#263238"/>
<path d="M178.829 22.985H93.8001C92.0757 22.985 90.6777 24.3829 90.6777 26.1074V104.334C90.6777 106.059 92.0757 107.457 93.8001 107.457H178.829C180.553 107.457 181.951 106.059 181.951 104.334V26.1074C181.951 24.3829 180.553 22.985 178.829 22.985Z" fill="white"/>
<path d="M178.829 107.457H179.053C179.274 107.438 179.492 107.397 179.705 107.333C180.12 107.206 180.504 106.993 180.832 106.709C181.16 106.424 181.424 106.074 181.609 105.681C181.865 105.091 181.967 104.446 181.904 103.806C181.904 103.097 181.904 102.316 181.904 101.474C181.904 99.7886 181.904 97.8419 181.904 95.6524C181.904 86.8944 181.88 74.2334 181.861 58.5642C181.861 50.7344 181.861 42.1621 181.861 32.9519C181.861 30.6545 181.861 28.3175 181.861 25.9408C181.825 25.3597 181.622 24.8014 181.276 24.3334C180.929 23.8654 180.455 23.5078 179.909 23.3038C179.342 23.1245 178.745 23.0598 178.153 23.1134H161.165H93.81C93.0952 23.1176 92.4052 23.3757 91.8632 23.8417C91.3033 24.3145 90.9373 24.9771 90.8351 25.7028C90.8023 26.0667 90.7912 26.4323 90.8018 26.7975V56.1034C90.8018 67.3698 90.8018 78.2364 90.8018 88.5889C90.8018 93.7675 90.8018 98.8113 90.8018 103.72C90.8018 104.025 90.8018 104.339 90.8018 104.629C90.8293 104.922 90.8982 105.208 91.0065 105.481C91.2267 106.028 91.6023 106.498 92.0869 106.833C92.5666 107.168 93.1347 107.353 93.7195 107.366H102.53H128.142L165.23 107.409H175.312L165.23 107.433L128.142 107.471H102.53H93.7148C93.0859 107.455 92.4755 107.256 91.9587 106.897C91.4419 106.538 91.0414 106.036 90.8066 105.453C90.6897 105.16 90.6144 104.852 90.5828 104.539C90.559 104.215 90.5828 103.92 90.5828 103.611C90.5828 98.7018 90.5828 93.658 90.5828 88.4794C90.5828 78.1269 90.5828 67.2603 90.5828 55.9939C90.5828 50.3584 90.5828 44.6292 90.5828 38.8064V26.7737C90.5698 26.3973 90.5825 26.0204 90.6209 25.6456C90.7256 24.8715 91.112 24.1632 91.7061 23.6561C92.2896 23.1459 93.035 22.8592 93.81 22.8469H161.165H178.125C178.743 22.7935 179.366 22.8647 179.957 23.0563C180.541 23.2748 181.049 23.6576 181.419 24.1585C181.79 24.6594 182.008 25.2569 182.047 25.8789C182.047 28.2588 182.047 30.6006 182.047 32.9043C182.047 42.1145 182.047 50.6868 182.047 58.5166C182.047 74.1763 182.018 86.8468 182.009 95.6048C182.009 97.7943 182.009 99.741 182.009 101.426C182.009 102.268 182.009 103.049 182.009 103.758C182.069 104.409 181.961 105.065 181.694 105.662C181.456 106.163 181.087 106.59 180.628 106.901C180.169 107.211 179.635 107.393 179.081 107.428L178.829 107.457Z" fill="#263238"/>
<path d="M97.5746 28.8394C97.5746 29.1522 97.4817 29.4579 97.3079 29.7178C97.134 29.9778 96.887 30.1803 96.5979 30.2998C96.3089 30.4193 95.9909 30.4503 95.6843 30.3889C95.3776 30.3276 95.096 30.1766 94.8752 29.9551C94.6544 29.7336 94.5043 29.4516 94.4438 29.1448C94.3834 28.8379 94.4154 28.52 94.5357 28.2314C94.6561 27.9427 94.8593 27.6962 95.1198 27.5232C95.3803 27.3501 95.6863 27.2582 95.9991 27.2592C96.2064 27.2592 96.4116 27.3001 96.6031 27.3795C96.7945 27.459 96.9684 27.5755 97.1148 27.7223C97.2612 27.8691 97.3771 28.0433 97.456 28.235C97.5349 28.4267 97.5752 28.6321 97.5746 28.8394Z" fill="#263238"/>
<path d="M100.598 30.4149C101.468 30.4149 102.173 29.7095 102.173 28.8394C102.173 27.9693 101.468 27.2639 100.598 27.2639C99.7278 27.2639 99.0225 27.9693 99.0225 28.8394C99.0225 29.7095 99.7278 30.4149 100.598 30.4149Z" fill="#263238"/>
<path d="M105.205 30.4149C106.075 30.4149 106.781 29.7095 106.781 28.8394C106.781 27.9693 106.075 27.2639 105.205 27.2639C104.335 27.2639 103.63 27.9693 103.63 28.8394C103.63 29.7095 104.335 30.4149 105.205 30.4149Z" fill="#263238"/>
<path d="M181.951 33.3185C181.951 33.3899 161.517 33.4422 136.314 33.4422C111.111 33.4422 90.6777 33.3899 90.6777 33.3185C90.6777 33.2471 111.107 33.1947 136.314 33.1947C161.522 33.1947 181.951 33.2471 181.951 33.3185Z" fill="#263238"/>
<path d="M149.209 65.1375C149.209 65.1375 149.242 65.0852 149.318 64.99L149.38 64.909L149.442 64.7996C149.495 64.711 149.541 64.6187 149.58 64.5235C149.58 64.4711 149.628 64.414 149.647 64.3521L149.704 64.1522C149.725 64.0788 149.741 64.0041 149.751 63.9285C149.751 63.8476 149.78 63.7667 149.785 63.681C149.816 63.2851 149.797 62.8869 149.728 62.4958C149.527 61.4254 149.161 60.3928 148.642 59.4353C147.973 58.1573 147.191 56.9418 146.305 55.8036C145.239 54.4192 144.076 53.1118 142.826 51.8911C141.394 50.486 139.866 49.1833 138.252 47.9928C137.4 47.3645 136.5 46.7553 135.553 46.1841C134.587 45.5941 133.584 45.0679 132.55 44.6086C131.486 44.1233 130.367 43.7716 129.218 43.5615C128.63 43.4568 128.03 43.4424 127.438 43.5186C127.14 43.5608 126.85 43.6441 126.576 43.7661C126.307 43.8982 126.064 44.0771 125.857 44.2945C125.66 44.5224 125.509 44.7857 125.41 45.0703C125.32 45.3573 125.271 45.6552 125.262 45.9556C125.254 46.5531 125.336 47.1483 125.505 47.7215C125.846 48.8428 126.326 49.9173 126.933 50.9201C127.505 51.8956 128.141 52.8321 128.837 53.7236C129.513 54.5994 130.222 55.4276 130.941 56.2034C132.308 57.6719 133.778 59.0414 135.339 60.3016C136.693 61.4061 138.125 62.413 139.623 63.3145C140.855 64.0637 142.151 64.7008 143.497 65.2184C144.509 65.6221 145.576 65.8693 146.662 65.9514C147.058 65.9709 147.454 65.9438 147.843 65.8705C147.928 65.8705 148.004 65.8277 148.081 65.8086C148.155 65.7891 148.228 65.7653 148.3 65.7372L148.49 65.6563L148.657 65.5706C148.747 65.5214 148.833 65.464 148.914 65.3993L149.014 65.3279L149.09 65.2565C149.175 65.1708 149.223 65.1328 149.223 65.1328L149.094 65.2613L149.018 65.3327L148.923 65.4088C148.842 65.4746 148.754 65.532 148.661 65.5802L148.504 65.6849L148.309 65.7658C148.24 65.7952 148.168 65.8191 148.095 65.8372C148.015 65.8644 147.934 65.8867 147.852 65.9038C147.461 65.984 147.061 66.0128 146.662 65.9895C145.573 65.9155 144.502 65.673 143.487 65.2708C142.137 64.7537 140.835 64.1166 139.599 63.3669C138.101 62.4651 136.67 61.4583 135.315 60.3539C133.749 59.0953 132.276 57.7258 130.907 56.2558C130.189 55.4799 129.479 54.6517 128.799 53.7759C128.105 52.8799 127.469 51.9403 126.895 50.9629C126.287 49.9555 125.807 48.8762 125.467 47.7501C125.294 47.1696 125.21 46.5661 125.219 45.9604C125.229 45.655 125.281 45.3524 125.372 45.0608C125.48 44.7658 125.641 44.4931 125.848 44.2564C126.059 44.0302 126.311 43.8461 126.59 43.7138C126.871 43.5886 127.167 43.5022 127.471 43.4568C128.071 43.3804 128.679 43.3949 129.275 43.4996C130.433 43.7115 131.56 44.0664 132.63 44.5563C133.667 45.0161 134.672 45.544 135.639 46.1365C136.591 46.7077 137.49 47.3169 138.342 47.95C139.959 49.1426 141.488 50.4502 142.916 51.8625C144.169 53.0853 145.334 54.396 146.4 55.7846C147.284 56.926 148.063 58.1447 148.728 59.4258C149.245 60.3885 149.61 61.4258 149.808 62.5006C149.875 62.8952 149.891 63.2967 149.856 63.6953C149.849 63.777 149.836 63.8581 149.818 63.9381C149.81 64.0142 149.794 64.0892 149.77 64.1618L149.713 64.3664C149.693 64.425 149.669 64.4823 149.642 64.5378C149.606 64.6354 149.558 64.7282 149.499 64.8138C149.482 64.8524 149.462 64.8891 149.437 64.9233L149.375 65.0042L149.209 65.1375Z" fill="#333C99"/>
<path d="M153.525 54.7041V54.5232V54.4233C153.525 54.3852 153.525 54.3471 153.502 54.2995C153.485 54.197 153.458 54.0965 153.421 53.9996C153.421 53.9473 153.383 53.8854 153.359 53.8283L153.264 53.6379C153.233 53.5689 153.194 53.5034 153.149 53.4427C153.108 53.3713 153.062 53.3029 153.011 53.2381C152.774 52.9199 152.496 52.6349 152.183 52.3908C151.317 51.7261 150.354 51.1995 149.327 50.8296C147.978 50.3196 146.586 49.9325 145.167 49.673C143.44 49.3488 141.692 49.1484 139.936 49.0733C137.932 48.9756 135.923 49.0186 133.925 49.2018C132.873 49.3017 131.797 49.4493 130.707 49.654C129.594 49.8548 128.495 50.1299 127.418 50.4774C126.299 50.8164 125.227 51.2962 124.229 51.9053C123.72 52.2174 123.263 52.6059 122.872 53.0572C122.679 53.2861 122.519 53.5408 122.396 53.814C122.279 54.0915 122.214 54.3885 122.206 54.6898C122.215 54.9904 122.278 55.287 122.392 55.5656C122.516 55.8378 122.676 56.0923 122.868 56.3224C123.261 56.774 123.72 57.164 124.229 57.479C125.229 58.0854 126.3 58.5651 127.418 58.907C128.496 59.25 129.595 59.5251 130.707 59.7304C131.797 59.9351 132.873 60.0779 133.925 60.1778C135.923 60.3648 137.932 60.4094 139.936 60.3111C141.692 60.2409 143.442 60.05 145.172 59.7399C146.591 59.4804 147.983 59.0933 149.332 58.5833C150.357 58.2096 151.32 57.6833 152.188 57.0221C152.499 56.7767 152.778 56.4919 153.016 56.1748C153.067 56.1084 153.113 56.0384 153.154 55.9654C153.199 55.9047 153.237 55.8393 153.268 55.7703L153.364 55.5846C153.387 55.5228 153.406 55.4656 153.425 55.4085C153.463 55.3118 153.49 55.2113 153.506 55.1087C153.506 55.0658 153.506 55.0277 153.53 54.9897V54.8897V54.7041C153.53 54.7041 153.53 54.766 153.53 54.8897V54.9897C153.53 55.0277 153.53 55.0658 153.53 55.1134C153.515 55.2158 153.49 55.3163 153.454 55.4133C153.454 55.4704 153.416 55.5275 153.392 55.5894L153.302 55.7798C153.268 55.8488 153.23 55.9156 153.187 55.9797C153.145 56.0504 153.099 56.1188 153.049 56.1844C152.813 56.5057 152.534 56.7938 152.221 57.0411C151.357 57.7114 150.393 58.2429 149.365 58.6166C148.015 59.1323 146.621 59.5243 145.201 59.7875C143.472 60.1128 141.722 60.3164 139.965 60.3968C137.959 60.4984 135.948 60.4571 133.948 60.273C132.892 60.1731 131.811 60.0303 130.721 59.8256C129.606 59.6197 128.504 59.3447 127.423 59.0022C126.299 58.6623 125.223 58.1825 124.219 57.5742C123.704 57.2577 123.24 56.8645 122.844 56.4081C122.651 56.1722 122.491 55.9112 122.368 55.6322C122.239 55.3481 122.173 55.0398 122.173 54.7279C122.173 54.416 122.239 54.1077 122.368 53.8235C122.493 53.5455 122.652 53.2847 122.844 53.0477C123.245 52.5918 123.712 52.1987 124.229 51.8815C125.235 51.2741 126.312 50.7944 127.437 50.4536C128.516 50.1066 129.616 49.8315 130.731 49.6302C131.826 49.4255 132.901 49.2827 133.958 49.1827C135.944 48.9895 137.942 48.937 139.936 49.0257C141.694 49.1052 143.444 49.3103 145.172 49.6397C146.593 49.9005 147.987 50.2909 149.337 50.8058C150.365 51.1795 151.328 51.7111 152.193 52.3813C152.505 52.6298 152.783 52.9178 153.021 53.2381C153.072 53.3045 153.118 53.3745 153.159 53.4475C153.202 53.511 153.24 53.5778 153.273 53.6474L153.364 53.833C153.387 53.8949 153.406 53.9568 153.425 54.0092C153.461 54.1077 153.487 54.2098 153.502 54.3138C153.502 54.3566 153.502 54.3995 153.502 54.4328V54.5375C153.525 54.6422 153.525 54.7041 153.525 54.7041Z" fill="#333C99"/>
<path d="M147.804 41.7242L147.647 41.6242L147.562 41.5671C147.527 41.5469 147.49 41.5294 147.452 41.5148C147.361 41.4652 147.266 41.4253 147.167 41.3958C147.11 41.3958 147.052 41.3529 146.991 41.3386L146.786 41.2958C146.712 41.2797 146.637 41.2686 146.562 41.2625C146.48 41.2576 146.397 41.2576 146.315 41.2625C145.917 41.2575 145.521 41.3022 145.134 41.3958C144.081 41.6754 143.076 42.1135 142.155 42.6952C140.925 43.4476 139.766 44.3112 138.694 45.275C137.386 46.4342 136.161 47.6844 135.029 49.0162C133.725 50.5397 132.53 52.1541 131.455 53.8473C130.893 54.7374 130.341 55.6894 129.836 56.6413C129.313 57.6446 128.857 58.6813 128.47 59.7447C128.061 60.8416 127.788 61.9845 127.656 63.1479C127.593 63.742 127.62 64.3422 127.737 64.9281C127.803 65.2214 127.907 65.5047 128.047 65.7705C128.194 66.0331 128.389 66.2656 128.623 66.456C128.865 66.6323 129.138 66.763 129.427 66.8415C129.718 66.912 130.018 66.9425 130.317 66.9319C130.914 66.8987 131.503 66.7751 132.064 66.5654C133.159 66.15 134.198 65.6 135.158 64.9281C136.091 64.2887 136.981 63.5891 137.823 62.8338C138.651 62.096 139.427 61.3344 140.151 60.5634C141.52 59.0976 142.785 57.5373 143.935 55.894C144.943 54.4668 145.85 52.9701 146.648 51.4151C147.313 50.1361 147.861 48.7995 148.285 47.4216C148.618 46.383 148.79 45.2995 148.794 44.2088C148.793 43.813 148.739 43.4192 148.633 43.0379C148.633 42.9522 148.58 42.8761 148.556 42.7999C148.533 42.7237 148.504 42.6571 148.471 42.5905L148.38 42.4048C148.347 42.3477 148.309 42.2954 148.28 42.2478C148.226 42.1584 148.163 42.0754 148.09 42.0003L148.014 41.9051L147.938 41.8384L147.804 41.7147L147.942 41.8337L148.019 41.9003C148.048 41.9283 148.075 41.9585 148.1 41.9907C148.171 42.0665 148.235 42.1495 148.29 42.2382C148.323 42.2906 148.361 42.3382 148.395 42.3953L148.485 42.5857C148.522 42.6525 148.552 42.7226 148.576 42.7951C148.599 42.8713 148.633 42.9475 148.652 43.0331C148.762 43.4155 148.819 43.811 148.823 44.2088C148.825 45.3023 148.656 46.3895 148.323 47.4312C147.901 48.8128 147.356 50.154 146.695 51.4389C145.898 52.997 144.991 54.4969 143.982 55.9273C142.835 57.5758 141.57 59.1394 140.198 60.6062C139.475 61.382 138.699 62.1484 137.866 62.8861C137.022 63.6428 136.13 64.3439 135.196 64.9852C134.233 65.6622 133.189 66.2155 132.088 66.6321C131.521 66.8438 130.926 66.9689 130.322 67.0033C130.015 67.0136 129.707 66.9832 129.408 66.9129C129.11 66.8288 128.829 66.6918 128.58 66.5083C128.339 66.3127 128.137 66.0738 127.985 65.8039C127.841 65.5321 127.734 65.2424 127.666 64.9424C127.55 64.3498 127.525 63.7433 127.59 63.1432C127.719 61.9727 127.994 60.823 128.408 59.7209C128.795 58.656 129.251 57.6177 129.774 56.6128C130.284 55.6227 130.831 54.6803 131.398 53.7855C132.479 52.093 133.678 50.4786 134.986 48.9543C136.12 47.6227 137.348 46.3741 138.661 45.2179C139.739 44.2551 140.902 43.3917 142.136 42.6381C143.062 42.059 144.072 41.6255 145.129 41.3529C145.517 41.2571 145.915 41.2123 146.315 41.2197C146.4 41.2197 146.481 41.2197 146.562 41.2197C146.639 41.2254 146.715 41.2365 146.791 41.253L146.995 41.2958L147.171 41.3577C147.271 41.3887 147.366 41.4302 147.457 41.4814C147.495 41.4961 147.531 41.5136 147.566 41.5338L147.652 41.5957L147.804 41.7242Z" fill="#333C99"/>
<path d="M122.017 61.1727C122.098 61.254 122.153 61.3575 122.175 61.47C122.197 61.5826 122.185 61.6992 122.141 61.8051C122.097 61.911 122.023 62.0015 121.927 62.0652C121.832 62.1289 121.72 62.1629 121.605 62.1629C121.49 62.1629 121.378 62.1289 121.283 62.0652C121.187 62.0015 121.113 61.911 121.069 61.8051C121.025 61.6992 121.013 61.5826 121.035 61.47C121.057 61.3575 121.112 61.254 121.193 61.1727C121.247 61.1184 121.312 61.0753 121.382 61.046C121.453 61.0166 121.529 61.0015 121.605 61.0015C121.682 61.0015 121.757 61.0166 121.828 61.046C121.899 61.0753 121.963 61.1184 122.017 61.1727Z" fill="#333C99"/>
<path d="M154.854 43.1378C154.855 43.2538 154.822 43.3675 154.758 43.4644C154.694 43.5613 154.603 43.6371 154.496 43.6821C154.389 43.7271 154.272 43.7394 154.158 43.7174C154.044 43.6953 153.939 43.6399 153.857 43.5583C153.774 43.4766 153.718 43.3723 153.695 43.2586C153.672 43.1449 153.684 43.0269 153.728 42.9197C153.772 42.8124 153.847 42.7207 153.943 42.6562C154.04 42.5916 154.153 42.5572 154.269 42.5571C154.346 42.5565 154.422 42.5711 154.493 42.6C154.564 42.6289 154.628 42.6715 154.683 42.7255C154.737 42.7795 154.78 42.8437 154.81 42.9145C154.839 42.9853 154.854 43.0612 154.854 43.1378Z" fill="#333C99"/>
<path d="M125.691 63.086C125.691 63.1152 125.682 63.1437 125.666 63.168C125.65 63.1923 125.626 63.2112 125.6 63.2224C125.573 63.2335 125.543 63.2364 125.514 63.2307C125.486 63.2251 125.459 63.211 125.439 63.1904C125.418 63.1697 125.404 63.1434 125.398 63.1148C125.393 63.0862 125.396 63.0565 125.407 63.0296C125.418 63.0026 125.437 62.9796 125.461 62.9633C125.485 62.9471 125.514 62.9385 125.543 62.9385C125.582 62.9385 125.62 62.954 125.647 62.9817C125.675 63.0094 125.691 63.0469 125.691 63.086Z" fill="#333C99"/>
<path d="M128.847 46.7791C128.847 46.8083 128.838 46.8369 128.822 46.8611C128.806 46.8854 128.783 46.9043 128.756 46.9155C128.729 46.9266 128.699 46.9296 128.671 46.9239C128.642 46.9182 128.616 46.9041 128.595 46.8835C128.574 46.8628 128.56 46.8366 128.555 46.8079C128.549 46.7793 128.552 46.7496 128.563 46.7227C128.574 46.6957 128.593 46.6727 128.617 46.6565C128.642 46.6402 128.67 46.6316 128.699 46.6316C128.738 46.6316 128.776 46.6471 128.804 46.6748C128.831 46.7025 128.847 46.74 128.847 46.7791Z" fill="#333C99"/>
<path d="M151.927 54.7041C151.927 54.7432 151.911 54.7807 151.884 54.8084C151.856 54.8361 151.819 54.8516 151.779 54.8516C151.74 54.8516 151.703 54.8361 151.675 54.8084C151.647 54.7807 151.632 54.7432 151.632 54.7041C151.632 54.6649 151.647 54.6274 151.675 54.5997C151.703 54.5721 151.74 54.5565 151.779 54.5565C151.819 54.5565 151.856 54.5721 151.884 54.5997C151.911 54.6274 151.927 54.6649 151.927 54.7041Z" fill="#333C99"/>
<path d="M153.983 47.812C153.983 47.8511 153.967 47.8886 153.939 47.9163C153.912 47.944 153.874 47.9595 153.835 47.9595C153.796 47.9595 153.758 47.944 153.731 47.9163C153.703 47.8886 153.688 47.8511 153.688 47.812C153.688 47.7728 153.703 47.7353 153.731 47.7076C153.758 47.68 153.796 47.6644 153.835 47.6644C153.874 47.6644 153.912 47.68 153.939 47.7076C153.967 47.7353 153.983 47.7728 153.983 47.812Z" fill="#333C99"/>
<path d="M144.015 57.955H142.188V48.0023C142.188 46.875 141.74 45.7939 140.943 44.9968C140.146 44.1996 139.065 43.7518 137.937 43.7518C136.81 43.7518 135.729 44.1996 134.932 44.9968C134.135 45.7939 133.687 46.875 133.687 48.0023V57.955H131.845V48.0023C131.845 46.3903 132.485 44.8442 133.625 43.7043C134.765 42.5645 136.311 41.9241 137.923 41.9241C139.535 41.9241 141.081 42.5645 142.221 43.7043C143.361 44.8442 144.001 46.3903 144.001 48.0023L144.015 57.955Z" fill="#333C99"/>
<g opacity="0.3">
<path d="M144.015 57.955H142.188V48.0023C142.188 46.875 141.74 45.7939 140.943 44.9968C140.146 44.1996 139.065 43.7518 137.937 43.7518C136.81 43.7518 135.729 44.1996 134.932 44.9968C134.135 45.7939 133.687 46.875 133.687 48.0023V57.955H131.845V48.0023C131.845 46.3903 132.485 44.8442 133.625 43.7043C134.765 42.5645 136.311 41.9241 137.923 41.9241C139.535 41.9241 141.081 42.5645 142.221 43.7043C143.361 44.8442 144.001 46.3903 144.001 48.0023L144.015 57.955Z" fill="black"/>
</g>
<path d="M145.058 53.5284H130.817C130.226 53.5284 129.746 54.0079 129.746 54.5994V62.9671C129.746 63.5585 130.226 64.038 130.817 64.038H145.058C145.65 64.038 146.129 63.5585 146.129 62.9671V54.5994C146.129 54.0079 145.65 53.5284 145.058 53.5284Z" fill="#333C99"/>
<g opacity="0.3">
<path d="M139.309 57.4171C139.311 57.1615 139.241 56.9105 139.108 56.6923C138.975 56.4742 138.784 56.2976 138.555 56.1825C138.327 56.0674 138.071 56.0184 137.817 56.041C137.562 56.0637 137.319 56.157 137.115 56.3105C136.91 56.4641 136.753 56.6716 136.66 56.9099C136.568 57.1481 136.544 57.4075 136.591 57.6587C136.638 57.9099 136.754 58.143 136.927 58.3316C137.099 58.5202 137.321 58.6568 137.567 58.726V60.7727H138.309V58.726C138.596 58.647 138.849 58.4762 139.03 58.2399C139.21 58.0035 139.308 57.7145 139.309 57.4171Z" fill="black"/>
</g>
<path d="M130.622 63.0432C130.584 63.0432 130.551 61.2916 130.551 59.1307C130.551 56.9697 130.584 55.2134 130.622 55.2134C130.66 55.2134 130.689 56.965 130.689 59.1307C130.689 61.2964 130.655 63.0432 130.622 63.0432Z" fill="#FAFAFA"/>
<path d="M136.867 59.1687C136.867 59.1687 136.8 59.1687 136.705 59.0782C136.57 58.9778 136.451 58.8574 136.352 58.7212C136.179 58.4969 136.058 58.2365 135.998 57.9594C135.938 57.6822 135.941 57.3951 136.006 57.1191C136.071 56.8431 136.197 56.5852 136.375 56.3642C136.553 56.1431 136.778 55.9646 137.033 55.8416C137.182 55.7617 137.343 55.7055 137.509 55.675C137.57 55.6635 137.633 55.6635 137.695 55.675C137.484 55.7464 137.279 55.8323 137.081 55.932C136.848 56.0602 136.645 56.2355 136.485 56.4467C136.324 56.6579 136.21 56.9004 136.148 57.1586C136.087 57.4167 136.08 57.6848 136.128 57.9458C136.177 58.2067 136.279 58.4546 136.429 58.6736C136.561 58.8501 136.708 59.0157 136.867 59.1687Z" fill="#FAFAFA"/>
<path d="M162.26 73.0482H111.821C109.371 73.0482 107.385 75.0343 107.385 77.4843V78.0269C107.385 80.4769 109.371 82.463 111.821 82.463H162.26C164.71 82.463 166.696 80.4769 166.696 78.0269V77.4843C166.696 75.0343 164.71 73.0482 162.26 73.0482Z" fill="#F5F5F5"/>
<path d="M162.693 85.9568H112.253C109.803 85.9568 107.817 87.9429 107.817 90.3929V90.9355C107.817 93.3855 109.803 95.3716 112.253 95.3716H162.693C165.143 95.3716 167.129 93.3855 167.129 90.9355V90.3929C167.129 87.9429 165.143 85.9568 162.693 85.9568Z" fill="#F5F5F5"/>
<path d="M116.757 77.6795V76.3182H117.323V77.6605C117.323 78.1365 117.523 78.3126 117.866 78.3126C118.209 78.3126 118.408 78.1222 118.408 77.6605V76.3182H118.965V77.6795C118.965 77.9724 118.849 78.2533 118.642 78.4604C118.435 78.6675 118.154 78.7838 117.861 78.7838C117.568 78.7838 117.287 78.6675 117.08 78.4604C116.873 78.2533 116.757 77.9724 116.757 77.6795Z" fill="#263238"/>
<path d="M119.304 78.5791L119.48 78.1888C119.677 78.3062 119.902 78.3687 120.132 78.3696C120.384 78.3696 120.475 78.303 120.475 78.1983C120.475 77.8937 119.347 78.1983 119.347 77.4605C119.347 77.1035 119.665 76.8513 120.213 76.8513C120.462 76.8473 120.709 76.9045 120.932 77.0179L120.751 77.4034C120.587 77.31 120.401 77.2624 120.213 77.2654C119.97 77.2654 119.865 77.3415 119.865 77.4367C119.865 77.7556 120.993 77.4367 120.993 78.184C120.993 78.5315 120.675 78.779 120.113 78.779C119.83 78.7853 119.551 78.7163 119.304 78.5791Z" fill="#263238"/>
<path d="M123.154 77.9698H121.726C121.756 78.0869 121.826 78.1894 121.925 78.2585C122.024 78.3276 122.144 78.3586 122.264 78.3459C122.352 78.3497 122.439 78.3357 122.521 78.3046C122.603 78.2735 122.677 78.226 122.74 78.165L123.031 78.4791C122.931 78.5818 122.811 78.6617 122.678 78.7135C122.545 78.7652 122.402 78.7876 122.259 78.779C122.125 78.796 121.988 78.784 121.859 78.7438C121.729 78.7036 121.609 78.6362 121.508 78.546C121.407 78.4559 121.326 78.3451 121.27 78.2211C121.215 78.0971 121.187 77.9627 121.189 77.827C121.188 77.6979 121.214 77.5701 121.265 77.4514C121.316 77.3327 121.39 77.2256 121.484 77.1365C121.577 77.0475 121.688 76.9784 121.809 76.9334C121.93 76.8885 122.059 76.8686 122.188 76.8751C122.315 76.8719 122.441 76.8942 122.56 76.9406C122.678 76.987 122.786 77.0566 122.877 77.1454C122.968 77.2341 123.04 77.3401 123.089 77.4572C123.138 77.5742 123.164 77.7 123.164 77.827C123.164 77.8651 123.154 77.9222 123.154 77.9698ZM121.726 77.6509H122.645C122.618 77.5501 122.558 77.4611 122.475 77.3976C122.392 77.3342 122.29 77.2998 122.186 77.2998C122.081 77.2998 121.98 77.3342 121.897 77.3976C121.814 77.4611 121.754 77.5501 121.726 77.6509Z" fill="#263238"/>
<path d="M124.706 76.8513V77.3559H124.582C124.515 77.3555 124.449 77.3692 124.388 77.3961C124.327 77.4229 124.272 77.4623 124.227 77.5117C124.183 77.561 124.149 77.6193 124.128 77.6827C124.107 77.746 124.099 77.8131 124.106 77.8795V78.76H123.563V76.8894H124.082V77.1084C124.159 77.0197 124.255 76.9502 124.363 76.9055C124.472 76.8609 124.589 76.8423 124.706 76.8513Z" fill="#263238"/>
<path d="M126.924 77.6795V78.7505H126.382V77.7652C126.382 77.4606 126.244 77.3225 126.001 77.3225C125.758 77.3225 125.553 77.4844 125.553 77.8271V78.7505H125.011V76.8799H125.53V77.1083C125.61 77.0265 125.706 76.9622 125.813 76.9196C125.919 76.877 126.034 76.857 126.148 76.8608C126.256 76.8538 126.363 76.8705 126.464 76.9097C126.564 76.949 126.654 77.0099 126.728 77.0881C126.802 77.1662 126.858 77.2597 126.892 77.362C126.926 77.4642 126.937 77.5726 126.924 77.6795Z" fill="#263238"/>
<path d="M129.07 77.6843V78.7505H128.561V78.5363C128.498 78.6273 128.412 78.6997 128.311 78.7458C128.211 78.7919 128.1 78.8099 127.99 78.7981C127.552 78.7981 127.29 78.5553 127.29 78.2317C127.29 77.908 127.523 77.67 128.094 77.67H128.513C128.513 77.4415 128.375 77.3035 128.08 77.3035C127.887 77.3028 127.698 77.3646 127.542 77.4796L127.347 77.0988C127.588 76.9432 127.87 76.8636 128.156 76.8704C128.737 76.8513 129.07 77.1084 129.07 77.6843ZM128.528 78.1603V77.9699H128.156C127.899 77.9699 127.823 78.0651 127.823 78.1888C127.823 78.3126 127.937 78.4173 128.128 78.4173C128.211 78.4198 128.292 78.3964 128.362 78.3503C128.431 78.3043 128.484 78.2378 128.513 78.1603H128.528Z" fill="#263238"/>
<path d="M132.721 77.6796V78.7505H132.178V77.7652C132.178 77.4606 132.045 77.3226 131.826 77.3226C131.607 77.3226 131.412 77.4796 131.412 77.7985V78.7505H130.893V77.7652C130.893 77.4606 130.765 77.3226 130.536 77.3226C130.308 77.3226 130.127 77.4796 130.127 77.7985V78.7505H129.561V76.8799H130.079V77.1084C130.153 77.0269 130.243 76.9625 130.345 76.9197C130.446 76.877 130.555 76.8569 130.665 76.8609C130.786 76.8553 130.906 76.8808 131.014 76.935C131.123 76.9892 131.215 77.0702 131.284 77.1703C131.364 77.0696 131.468 76.9892 131.585 76.9355C131.702 76.8818 131.83 76.8562 131.959 76.8609C132.066 76.8543 132.173 76.8714 132.272 76.9111C132.372 76.9508 132.461 77.0119 132.534 77.0902C132.607 77.1685 132.661 77.262 132.694 77.3639C132.726 77.4658 132.735 77.5736 132.721 77.6796Z" fill="#263238"/>
<path d="M135.054 77.9698H133.626C133.65 78.0886 133.719 78.1937 133.818 78.2635C133.917 78.3334 134.039 78.3629 134.159 78.3459C134.246 78.3495 134.333 78.3353 134.415 78.3042C134.497 78.2731 134.572 78.2258 134.635 78.165L134.92 78.4791C134.821 78.5823 134.701 78.6626 134.568 78.7144C134.435 78.7662 134.292 78.7882 134.149 78.779C134.015 78.7952 133.879 78.7827 133.75 78.7422C133.621 78.7016 133.502 78.6341 133.401 78.544C133.3 78.454 133.22 78.3434 133.165 78.2198C133.11 78.0962 133.082 77.9623 133.083 77.827C133.083 77.6979 133.109 77.5701 133.16 77.4514C133.211 77.3327 133.285 77.2256 133.378 77.1365C133.472 77.0475 133.583 76.9784 133.704 76.9334C133.825 76.8885 133.954 76.8686 134.083 76.8751C134.335 76.8751 134.577 76.9754 134.756 77.1539C134.934 77.3324 135.035 77.5746 135.035 77.827C135.063 77.8651 135.058 77.9222 135.054 77.9698ZM133.626 77.6509H134.549C134.534 77.5382 134.476 77.4356 134.387 77.3639C134.299 77.2923 134.187 77.2571 134.073 77.2654C133.965 77.2634 133.859 77.3018 133.778 77.373C133.696 77.4442 133.643 77.5433 133.63 77.6509H133.626Z" fill="#263238"/>
<path d="M138.642 77.7985C138.642 78.4221 138.356 78.7791 137.928 78.7791C137.827 78.7858 137.726 78.7598 137.64 78.705C137.554 78.6502 137.488 78.5694 137.452 78.4744C137.389 78.5735 137.3 78.6539 137.196 78.7074C137.091 78.7609 136.974 78.7857 136.857 78.7791C136.639 78.7564 136.438 78.6538 136.291 78.4912C136.145 78.3286 136.063 78.1174 136.063 77.8985C136.063 77.6796 136.145 77.4684 136.291 77.3058C136.438 77.1432 136.639 77.0406 136.857 77.0179C136.958 77.0133 137.058 77.0319 137.151 77.0723C137.243 77.1128 137.325 77.174 137.39 77.2512V77.0465H137.866V78.1698C137.866 78.3364 137.938 78.3935 138.033 78.3935C138.128 78.3935 138.29 78.2079 138.29 77.8081C138.292 77.642 138.259 77.4773 138.193 77.3247C138.128 77.1722 138.03 77.0351 137.908 76.9225C137.786 76.8098 137.642 76.7241 137.485 76.6708C137.327 76.6176 137.16 76.598 136.995 76.6134C136.661 76.6134 136.34 76.7463 136.103 76.9828C135.867 77.2193 135.734 77.5402 135.734 77.8747C135.734 78.2092 135.867 78.5301 136.103 78.7666C136.34 79.0032 136.661 79.136 136.995 79.136C137.232 79.1357 137.466 79.0838 137.68 78.9837L137.79 79.3026C137.541 79.4166 137.269 79.4735 136.995 79.4692C136.779 79.4811 136.562 79.4487 136.359 79.374C136.155 79.2993 135.969 79.184 135.812 79.035C135.654 78.886 135.529 78.7064 135.443 78.5073C135.358 78.3083 135.313 78.0938 135.313 77.8771C135.313 77.6604 135.358 77.4459 135.443 77.2468C135.529 77.0477 135.654 76.8682 135.812 76.7192C135.969 76.5702 136.155 76.4548 136.359 76.3802C136.562 76.3055 136.779 76.2731 136.995 76.2849C137.204 76.2679 137.415 76.2943 137.614 76.3626C137.812 76.4308 137.995 76.5394 138.15 76.6816C138.304 76.8237 138.428 76.9964 138.513 77.1886C138.597 77.3808 138.641 77.5885 138.642 77.7985ZM137.4 77.8985C137.407 77.8376 137.4 77.7759 137.381 77.7176C137.362 77.6593 137.331 77.6058 137.289 77.5607C137.248 77.5156 137.197 77.4799 137.14 77.4561C137.084 77.4322 137.023 77.4208 136.962 77.4225C136.836 77.4225 136.714 77.4727 136.625 77.5619C136.536 77.6512 136.486 77.7723 136.486 77.8985C136.486 78.0247 136.536 78.1458 136.625 78.2351C136.714 78.3243 136.836 78.3745 136.962 78.3745C137.023 78.3762 137.084 78.3648 137.14 78.341C137.197 78.3171 137.248 78.2814 137.289 78.2363C137.331 78.1912 137.362 78.1377 137.381 78.0794C137.4 78.0211 137.407 77.9594 137.4 77.8985Z" fill="#263238"/>
<path d="M142.189 77.6795V78.7504H141.646V77.7652C141.646 77.4606 141.513 77.3225 141.294 77.3225C141.075 77.3225 140.88 77.4796 140.88 77.7985V78.7504H140.337V77.7652C140.337 77.4606 140.209 77.3225 139.98 77.3225C139.752 77.3225 139.571 77.4796 139.571 77.7985V78.7504H139.028V76.8799H139.547V77.1083C139.621 77.0268 139.711 76.9624 139.812 76.9197C139.914 76.8769 140.023 76.8568 140.133 76.8608C140.254 76.8553 140.374 76.8808 140.482 76.9349C140.591 76.9891 140.683 77.0701 140.751 77.1702C140.831 77.0699 140.934 76.9897 141.05 76.936C141.167 76.8823 141.294 76.8565 141.422 76.8608C141.53 76.8535 141.637 76.8701 141.737 76.9094C141.837 76.9488 141.927 77.0098 142 77.0882C142.073 77.1666 142.128 77.2603 142.161 77.3626C142.194 77.4648 142.203 77.5731 142.189 77.6795Z" fill="#263238"/>
<path d="M144.33 77.6843V78.7505H143.826V78.5363C143.763 78.6273 143.677 78.6997 143.576 78.7458C143.475 78.7919 143.364 78.8099 143.254 78.7981C142.816 78.7981 142.555 78.5553 142.555 78.2317C142.555 77.908 142.788 77.67 143.359 77.67H143.787C143.787 77.4415 143.649 77.3035 143.359 77.3035C143.165 77.3011 142.976 77.363 142.821 77.4796L142.626 77.0988C142.865 76.9441 143.146 76.8645 143.43 76.8704C144.002 76.8513 144.33 77.1084 144.33 77.6843ZM143.787 78.1603V77.9699H143.416C143.164 77.9699 143.083 78.0651 143.083 78.1888C143.083 78.3126 143.197 78.4173 143.388 78.4173C143.473 78.4229 143.558 78.4009 143.63 78.3546C143.702 78.3084 143.757 78.2403 143.787 78.1603Z" fill="#263238"/>
<path d="M144.759 76.3182C144.759 76.2754 144.769 76.2332 144.786 76.1943C144.804 76.1553 144.829 76.1204 144.861 76.0918C144.893 76.0632 144.93 76.0414 144.971 76.028C145.011 76.0145 145.054 76.0096 145.097 76.0135C145.155 76.02 145.21 76.0431 145.256 76.0803C145.301 76.1174 145.335 76.1669 145.353 76.2228C145.371 76.2787 145.373 76.3387 145.358 76.3954C145.342 76.4521 145.311 76.5033 145.267 76.5426C145.224 76.5819 145.17 76.6078 145.112 76.6171C145.054 76.6264 144.994 76.6187 144.94 76.595C144.887 76.5713 144.841 76.5325 144.809 76.4834C144.776 76.4343 144.759 76.3769 144.759 76.3182ZM144.825 76.8798H145.363V78.7504H144.825V76.8798Z" fill="#263238"/>
<path d="M145.872 76.1564H146.415V78.7362H145.872V76.1564Z" fill="#263238"/>
<path d="M146.786 78.4411C146.786 78.3515 146.822 78.2655 146.885 78.2021C146.948 78.1388 147.034 78.1031 147.124 78.1031C147.214 78.1031 147.3 78.1388 147.363 78.2021C147.426 78.2655 147.462 78.3515 147.462 78.4411C147.462 78.5307 147.426 78.6167 147.363 78.6801C147.3 78.7434 147.214 78.779 147.124 78.779C147.034 78.779 146.948 78.7434 146.885 78.6801C146.822 78.6167 146.786 78.5307 146.786 78.4411Z" fill="#263238"/>
<path d="M147.666 77.8176C147.666 77.6846 147.693 77.5529 147.746 77.4311C147.8 77.3093 147.878 77.2 147.976 77.1103C148.075 77.0207 148.191 76.9525 148.317 76.9104C148.443 76.8682 148.576 76.853 148.709 76.8656C148.88 76.8512 149.052 76.8889 149.201 76.9738C149.351 77.0588 149.471 77.187 149.547 77.3416L149.128 77.5653C149.079 77.4944 149.014 77.4371 148.937 77.3989C148.86 77.3606 148.775 77.3428 148.689 77.3471C148.604 77.3514 148.521 77.3776 148.448 77.4233C148.376 77.4689 148.316 77.5325 148.275 77.6079C148.234 77.6832 148.213 77.7678 148.215 77.8536C148.216 77.9393 148.239 78.0233 148.282 78.0974C148.325 78.1715 148.387 78.2333 148.461 78.2768C148.535 78.3204 148.618 78.3442 148.704 78.3459C148.791 78.3461 148.877 78.3222 148.952 78.2769C149.027 78.2315 149.087 78.1665 149.128 78.0889L149.547 78.3174C149.47 78.4711 149.35 78.5986 149.2 78.6834C149.051 78.7682 148.88 78.8065 148.709 78.7933C148.574 78.8062 148.439 78.7904 148.311 78.7468C148.183 78.7033 148.066 78.633 147.967 78.5407C147.869 78.4484 147.791 78.3362 147.739 78.2115C147.687 78.0869 147.662 77.9526 147.666 77.8176Z" fill="#263238"/>
<path d="M149.699 77.8175C149.684 77.6116 149.731 77.4059 149.834 77.2271C149.937 77.0483 150.092 76.9048 150.278 76.8152C150.464 76.7255 150.673 76.694 150.877 76.7246C151.081 76.7553 151.271 76.8467 151.423 76.987C151.574 77.1273 151.68 77.3099 151.726 77.5111C151.773 77.7123 151.757 77.9228 151.682 78.1152C151.607 78.3075 151.476 78.4728 151.306 78.5895C151.135 78.7062 150.934 78.7689 150.727 78.7695C150.596 78.78 150.464 78.7632 150.339 78.7201C150.215 78.677 150.101 78.6085 150.004 78.5191C149.908 78.4296 149.831 78.3211 149.778 78.2003C149.726 78.0795 149.699 77.9492 149.699 77.8175ZM151.203 77.8175C151.195 77.7257 151.16 77.6382 151.103 77.5658C151.046 77.4933 150.969 77.439 150.882 77.4095C150.794 77.3799 150.7 77.3764 150.611 77.3993C150.522 77.4222 150.441 77.4706 150.378 77.5386C150.316 77.6065 150.275 77.6912 150.26 77.7821C150.244 77.8731 150.256 77.9665 150.293 78.051C150.33 78.1356 150.391 78.2075 150.468 78.2582C150.545 78.3088 150.635 78.336 150.727 78.3363C150.794 78.3366 150.859 78.323 150.92 78.2965C150.981 78.2699 151.035 78.231 151.08 78.1821C151.125 78.1333 151.159 78.0756 151.18 78.0128C151.201 77.9501 151.209 77.8835 151.203 77.8175Z" fill="#263238"/>
<path d="M155.278 77.6795V78.7504H154.735V77.7652C154.735 77.4606 154.597 77.3225 154.378 77.3225C154.159 77.3225 153.964 77.4796 153.964 77.7985V78.7504H153.421V77.7652C153.421 77.4606 153.293 77.3225 153.069 77.3225C152.845 77.3225 152.66 77.4796 152.66 77.7985V78.7504H152.117V76.8799H152.631V77.1083C152.706 77.0267 152.797 76.9623 152.899 76.9196C153.001 76.8768 153.111 76.8568 153.221 76.8608C153.342 76.8547 153.462 76.88 153.569 76.9343C153.677 76.9885 153.769 77.0698 153.835 77.1702C153.917 77.0701 154.02 76.9901 154.137 76.9364C154.254 76.8828 154.382 76.8569 154.511 76.8608C154.618 76.8535 154.726 76.8701 154.826 76.9094C154.926 76.9488 155.016 77.0098 155.089 77.0882C155.162 77.1666 155.217 77.2603 155.25 77.3626C155.283 77.4648 155.292 77.5731 155.278 77.6795Z" fill="#263238"/>
<path d="M124.025 90.7165L124.906 91.1924L124.511 91.8541L123.621 91.3305V92.311H122.859V91.321L121.998 91.8636L121.607 91.202L122.493 90.726L121.607 90.25L121.998 89.5884L122.888 90.1215V89.1362H123.649V90.1215L124.539 89.5884L124.935 90.25L124.025 90.7165Z" fill="#263238"/>
<path d="M127.695 90.7165L128.576 91.1924L128.181 91.8636L127.29 91.34V92.3205H126.534V91.3305L125.658 91.8636L125.268 91.202L126.148 90.726L125.268 90.25L125.658 89.5884L126.548 90.1215V89.1362H127.305V90.1215L128.195 89.5884L128.59 90.25L127.695 90.7165Z" fill="#263238"/>
<path d="M131.37 90.7165L132.251 91.1924L131.846 91.8636L130.961 91.34V92.3205H130.199V91.3305L129.333 91.8636L128.947 91.202L129.828 90.726L128.947 90.25L129.333 89.5884L130.223 90.1215V89.1362H130.984V90.1215L131.87 89.5884L132.27 90.25L131.37 90.7165Z" fill="#263238"/>
<path d="M135.029 90.7165L135.91 91.1924L135.515 91.8541L134.625 91.3305V92.311H133.863V91.321L133.002 91.8636L132.611 91.202L133.497 90.726L132.611 90.25L133.002 89.5884L133.892 90.1215V89.1362H134.653V90.1215L135.543 89.5884L135.938 90.25L135.029 90.7165Z" fill="#263238"/>
<path d="M138.699 90.7165L139.58 91.1924L139.185 91.8541L138.295 91.3305V92.311H137.557V91.321L136.672 91.8636L136.281 91.202L137.162 90.726L136.281 90.25L136.672 89.5884L137.557 90.1025V89.1172H138.314V90.1025L139.204 89.5694L139.599 90.231L138.699 90.7165Z" fill="#263238"/>
<path d="M142.369 90.7165L143.25 91.1924L142.855 91.8541L141.965 91.3305V92.311H141.203V91.321L140.337 91.8636L139.951 91.202L140.832 90.726L139.951 90.25L140.337 89.5884L141.227 90.1215V89.1362H141.988V90.1215L142.878 89.5884L143.273 90.25L142.369 90.7165Z" fill="#263238"/>
<path d="M146.034 90.7165L146.915 91.1924L146.52 91.8541L145.63 91.3305V92.311H144.868V91.321L144.007 91.8636L143.616 91.202L144.502 90.726L143.616 90.25L144.007 89.5884L144.897 90.1215V89.1362H145.649V90.1215L146.539 89.5884L146.934 90.25L146.034 90.7165Z" fill="#263238"/>
<path d="M149.704 90.7165L150.585 91.1924L150.19 91.8541L149.3 91.3305V92.311H148.543V91.321L147.676 91.8636L147.286 91.202L148.167 90.726L147.286 90.25L147.676 89.5884L148.567 90.1215V89.1362H149.323V90.1215L150.213 89.5884L150.608 90.25L149.704 90.7165Z" fill="#263238"/>
<path d="M106.475 64.4235H69.3966C69.1431 64.4235 68.892 64.4735 68.6578 64.5707C68.4236 64.6678 68.2109 64.8102 68.0318 64.9898C67.8528 65.1693 67.7109 65.3823 67.6143 65.6168C67.5177 65.8512 67.4683 66.1024 67.4689 66.3559V83.2436C67.4657 83.4976 67.5134 83.7497 67.6091 83.9851C67.7049 84.2204 67.8467 84.4342 68.0264 84.6138C68.206 84.7934 68.4198 84.9353 68.6551 85.0311C68.8905 85.1268 69.1426 85.1745 69.3966 85.1713H84.9515L88.2548 89.4123L91.0107 85.1713H106.475C106.728 85.1713 106.979 85.1214 107.213 85.0246C107.447 84.9277 107.659 84.7857 107.838 84.6067C108.017 84.4277 108.159 84.2152 108.256 83.9813C108.353 83.7474 108.403 83.4967 108.403 83.2436V66.3559C108.403 65.8442 108.2 65.3534 107.839 64.9911C107.477 64.6289 106.987 64.4247 106.475 64.4235Z" fill="white"/>
<path d="M106.476 64.4235H106.656C106.837 64.4391 107.015 64.4791 107.185 64.5425C107.463 64.6421 107.714 64.8051 107.918 65.0184C108.21 65.3322 108.389 65.7341 108.427 66.1608C108.465 67.9981 108.456 70.673 108.47 74.062C108.47 75.7565 108.47 77.6271 108.47 79.6547C108.47 80.6733 108.47 81.7252 108.47 82.82C108.483 83.0998 108.47 83.3802 108.432 83.6577C108.373 83.9465 108.253 84.2193 108.08 84.4573C107.902 84.7015 107.671 84.9026 107.405 85.0459C107.139 85.1892 106.844 85.2711 106.542 85.2855H90.9873L91.0825 85.2379C90.2162 86.5659 89.2833 88.0081 88.3314 89.4741L88.2409 89.6122L88.1362 89.4837L84.8329 85.2475L84.9281 85.2951H69.9682C69.6969 85.2951 69.4446 85.2951 69.1542 85.2951C68.7318 85.2447 68.3353 85.0649 68.0191 84.7803C67.703 84.4956 67.4826 84.1201 67.3884 83.7053C67.3409 83.4384 67.3234 83.167 67.336 82.8961V75.9231C67.336 73.8954 67.336 71.9074 67.336 69.9591V66.3559C67.3362 66.1052 67.383 65.8566 67.474 65.6229C67.6505 65.1585 67.9885 64.7732 68.426 64.5377C68.6445 64.4259 68.8817 64.3549 69.1257 64.3283C69.3603 64.3165 69.5955 64.3165 69.8301 64.3283H73.8807H79.0117H88.2171L101.544 64.3663L105.167 64.3901L101.544 64.4139L88.2171 64.452H79.0117H69.8682C69.6397 64.452 69.3922 64.452 69.1876 64.452C68.9713 64.4768 68.7615 64.5414 68.5688 64.6424C68.1751 64.8441 67.8687 65.1826 67.7073 65.5944C67.6256 65.8021 67.5836 66.0233 67.5835 66.2465V66.9604C67.5835 67.9124 67.5835 68.8643 67.5835 69.8496V75.8136C67.5835 77.8381 67.5835 79.9007 67.5835 82.0013V82.7914C67.5685 83.0445 67.5828 83.2985 67.6264 83.5482C67.7102 83.9128 67.9048 84.2426 68.1835 84.4923C68.4621 84.742 68.8112 84.8993 69.1828 84.9428C69.4255 84.9666 69.7064 84.9428 69.9682 84.9428H85.009L85.0471 84.9904L88.3504 89.2266H88.1552L90.9111 84.9904L90.9445 84.9381H91.0111H106.557C106.83 84.9289 107.098 84.8573 107.34 84.7286C107.582 84.5999 107.791 84.4175 107.951 84.1956C108.112 83.9819 108.223 83.7345 108.275 83.4721C108.312 83.2056 108.324 82.9364 108.313 82.6677C108.313 81.5729 108.313 80.521 108.313 79.5024C108.313 77.4748 108.313 75.6042 108.313 73.9097C108.313 70.5303 108.313 67.8553 108.337 66.0132C108.295 65.6151 108.128 65.2403 107.861 64.9423C107.665 64.724 107.423 64.553 107.151 64.4425C106.928 64.404 106.701 64.3976 106.476 64.4235Z" fill="#263238"/>
<path d="M80.9914 69.1928V69.8163H80.5868V69.188L79.9014 68.0647H80.3345L80.8105 68.8453L81.2865 68.0647H81.6863L80.9914 69.1928Z" fill="#263238"/>
<path d="M81.668 68.9357C81.6594 68.7458 81.7079 68.5578 81.8071 68.3957C81.9064 68.2336 82.0519 68.1049 82.225 68.0263C82.398 67.9476 82.5906 67.9225 82.778 67.9543C82.9654 67.986 83.139 68.0732 83.2764 68.2044C83.4139 68.3357 83.5089 68.5051 83.5492 68.6908C83.5896 68.8766 83.5734 69.0701 83.5028 69.2466C83.4321 69.423 83.3103 69.5743 83.153 69.6809C82.9956 69.7876 82.81 69.8446 82.6199 69.8448C82.497 69.8506 82.3741 69.8314 82.2588 69.7883C82.1435 69.7452 82.0382 69.6792 81.9492 69.5942C81.8602 69.5092 81.7894 69.407 81.741 69.2938C81.6927 69.1806 81.6678 69.0588 81.668 68.9357ZM83.1816 68.9357C83.1806 68.8267 83.1474 68.7204 83.0862 68.6303C83.025 68.5401 82.9384 68.4701 82.8374 68.429C82.7365 68.388 82.6256 68.3777 82.5188 68.3995C82.412 68.4214 82.3141 68.4743 82.2374 68.5517C82.1606 68.6291 82.1085 68.7275 82.0876 68.8345C82.0667 68.9415 82.0779 69.0522 82.1198 69.1529C82.1617 69.2535 82.2325 69.3394 82.3232 69.3999C82.4139 69.4603 82.5204 69.4926 82.6294 69.4926C82.7029 69.4946 82.776 69.4815 82.8442 69.4542C82.9124 69.4268 82.9743 69.3858 83.026 69.3336C83.0777 69.2815 83.1182 69.2192 83.145 69.1508C83.1717 69.0823 83.1842 69.0091 83.1816 68.9357Z" fill="#263238"/>
<path d="M83.8906 69.0405V68.0647H84.3V69.0167C84.3 69.3498 84.4475 69.4926 84.6903 69.4926C84.933 69.4926 85.0853 69.3546 85.0853 69.0167V68.0647H85.4899V69.05C85.4899 69.2621 85.4057 69.4654 85.2557 69.6154C85.1057 69.7654 84.9023 69.8496 84.6903 69.8496C84.4782 69.8496 84.2748 69.7654 84.1248 69.6154C83.9749 69.4654 83.8906 69.2621 83.8906 69.05V69.0405Z" fill="#263238"/>
<path d="M87.0178 69.8163L86.6799 69.3403H86.3039V69.8163H85.8945V68.0647H86.6561C87.1321 68.0647 87.4224 68.3074 87.4224 68.7025C87.4277 68.8215 87.3957 68.9391 87.3308 69.0389C87.2659 69.1388 87.1715 69.2159 87.0607 69.2594L87.4557 69.8258L87.0178 69.8163ZM86.6371 68.3884H86.3039V69.0167H86.6371C86.8846 69.0167 87.0083 68.8977 87.0083 68.7073C87.0083 68.5169 86.8846 68.3836 86.6275 68.3836L86.6371 68.3884Z" fill="#263238"/>
<path d="M88.3506 68.9358C88.3521 68.7406 88.4137 68.5506 88.5269 68.3915C88.64 68.2325 88.7994 68.112 88.9833 68.0466C89.1672 67.9811 89.3668 67.9738 89.555 68.0256C89.7432 68.0773 89.911 68.1857 90.0355 68.3361L89.7738 68.5788C89.7198 68.5124 89.6516 68.459 89.5741 68.4227C89.4966 68.3865 89.4119 68.3682 89.3263 68.3694C89.1857 68.3823 89.0549 68.4473 88.9598 68.5517C88.8646 68.656 88.8118 68.7922 88.8118 68.9334C88.8118 69.0747 88.8646 69.2108 88.9598 69.3151C89.0549 69.4195 89.1857 69.4845 89.3263 69.4974C89.4116 69.4995 89.4961 69.4822 89.5737 69.4467C89.6512 69.4112 89.7196 69.3586 89.7738 69.2928L90.0355 69.5308C89.9113 69.6808 89.7439 69.7891 89.5562 69.841C89.3684 69.8929 89.1692 69.886 88.9855 69.8211C88.8018 69.7562 88.6424 69.6366 88.5289 69.4783C88.4153 69.3199 88.3531 69.1306 88.3506 68.9358Z" fill="#263238"/>
<path d="M90.1641 68.9357C90.1555 68.7458 90.204 68.5578 90.3032 68.3957C90.4025 68.2336 90.548 68.1049 90.721 68.0263C90.8941 67.9476 91.0867 67.9225 91.2741 67.9543C91.4615 67.986 91.6351 68.0732 91.7725 68.2044C91.91 68.3357 92.005 68.5051 92.0453 68.6908C92.0857 68.8766 92.0695 69.0701 91.9988 69.2466C91.9282 69.423 91.8064 69.5743 91.6491 69.6809C91.4917 69.7876 91.3061 69.8446 91.116 69.8448C90.9931 69.8506 90.8702 69.8314 90.7549 69.7883C90.6396 69.7452 90.5343 69.6792 90.4453 69.5942C90.3563 69.5092 90.2855 69.407 90.2371 69.2938C90.1888 69.1806 90.1639 69.0588 90.1641 68.9357ZM91.6777 68.9357C91.6758 68.8269 91.6418 68.7211 91.58 68.6316C91.5182 68.5421 91.4313 68.4728 91.3303 68.4324C91.2293 68.3921 91.1186 68.3825 91.0121 68.4049C90.9056 68.4273 90.8081 68.4806 90.7319 68.5582C90.6556 68.6357 90.604 68.7341 90.5834 68.841C90.5629 68.9478 90.5743 69.0583 90.6164 69.1587C90.6584 69.259 90.7292 69.3447 90.8198 69.4049C90.9104 69.4652 91.0167 69.4973 91.1255 69.4974C91.1994 69.4994 91.2729 69.4862 91.3414 69.4586C91.41 69.4309 91.4721 69.3895 91.5239 69.3368C91.5757 69.2841 91.6161 69.2213 91.6426 69.1523C91.669 69.0833 91.681 69.0095 91.6777 68.9357Z" fill="#263238"/>
<path d="M92.4014 68.0647H93.2058C93.3291 68.0519 93.4537 68.0651 93.5716 68.1035C93.6895 68.1419 93.7981 68.2046 93.8902 68.2876C93.9823 68.3706 94.0559 68.4721 94.1063 68.5854C94.1567 68.6986 94.1828 68.8213 94.1828 68.9453C94.1828 69.0693 94.1567 69.1919 94.1063 69.3051C94.0559 69.4184 93.9823 69.5199 93.8902 69.6029C93.7981 69.6859 93.6895 69.7486 93.5716 69.787C93.4537 69.8254 93.3291 69.8387 93.2058 69.8258H92.4014V68.0647ZM93.182 69.4926C93.3271 69.4926 93.4664 69.435 93.569 69.3323C93.6717 69.2297 93.7293 69.0904 93.7293 68.9453C93.7293 68.8001 93.6717 68.6609 93.569 68.5582C93.4664 68.4556 93.3271 68.3979 93.182 68.3979H92.8155V69.4926H93.182Z" fill="#263238"/>
<path d="M95.8514 69.4926V69.8211H94.4854V68.0647H95.8181V68.3884H94.8899V68.7739H95.7086V69.0928H94.8899V69.4926H95.8514Z" fill="#263238"/>
<path d="M102.858 71.6678H73.0188C72.0856 71.6678 71.3291 72.4244 71.3291 73.3576V79.6595C71.3291 80.5927 72.0856 81.3492 73.0188 81.3492H102.858C103.791 81.3492 104.548 80.5927 104.548 79.6595V73.3576C104.548 72.4244 103.791 71.6678 102.858 71.6678Z" fill="#F5F5F5"/>
<path d="M78.0595 77.1082C78.0603 77.3075 78.0195 77.5048 77.9395 77.6873C77.8596 77.8698 77.7423 78.0336 77.5953 78.1681C77.4482 78.3026 77.2747 78.4049 77.0857 78.4682C76.8968 78.5316 76.6967 78.5548 76.4983 78.5361C75.2703 78.5361 74.6182 77.6508 74.6182 76.1848C74.6182 74.5951 75.4606 73.7811 76.7029 73.7811C77.0716 73.7651 77.4379 73.8473 77.7644 74.0191L77.6263 74.2952C77.344 74.1405 77.0246 74.0664 76.7029 74.081C75.651 74.081 74.9609 74.7712 74.9609 76.1325C74.9594 76.3204 74.9721 76.5081 74.9989 76.6941C75.1107 76.3946 75.3171 76.1396 75.5868 75.9678C75.8565 75.796 76.1748 75.7168 76.4935 75.7422C77.4502 75.7088 78.0595 76.2562 78.0595 77.1082ZM77.7168 77.1082C77.7168 76.4371 77.2408 76.0039 76.4459 76.0039C76.2863 75.9876 76.125 76.004 75.9719 76.052C75.8188 76.1001 75.6771 76.1789 75.5555 76.2836C75.4339 76.3883 75.3349 76.5167 75.2646 76.6609C75.1942 76.8052 75.1541 76.9622 75.1465 77.1225C75.1465 77.6699 75.6225 78.222 76.4888 78.222C76.6459 78.2417 76.8055 78.2276 76.9568 78.1804C77.1081 78.1333 77.2475 78.0543 77.3656 77.9488C77.4838 77.8432 77.578 77.7136 77.6418 77.5686C77.7057 77.4236 77.7377 77.2666 77.7358 77.1082H77.7168Z" fill="#333C99"/>
<path d="M84.2992 77.1844H83.3187V78.4838H82.9808V77.1844H80.3105V76.9369L82.857 73.7954H83.2378L80.7389 76.8797H82.9903V75.7374H83.3187V76.8797H84.2992V77.1844Z" fill="#333C99"/>
<path d="M89.5067 77.1606C89.5067 77.9412 88.945 78.5171 87.8645 78.5171C87.5607 78.5288 87.2577 78.4788 86.9738 78.37C86.6899 78.2611 86.431 78.0958 86.2129 77.8841L86.3842 77.6223C86.5787 77.8141 86.8103 77.9641 87.0649 78.0632C87.3194 78.1622 87.5916 78.2082 87.8645 78.1982C88.707 78.1982 89.1592 77.7984 89.1592 77.1606C89.1592 76.5228 88.7308 76.1229 87.7931 76.1229H87.498V75.8754L88.8831 74.1H86.3842V73.7764H89.3258V74.0144L87.8978 75.8183C89.0069 75.8611 89.5067 76.399 89.5067 77.1606Z" fill="#333C99"/>
<path d="M95.1944 73.7764V74.0144L93.181 78.4647H92.805L94.7993 74.081H92.1672V74.9806H91.834V73.7764H95.1944Z" fill="#333C99"/>
<path d="M97.5752 76.1563C97.5752 74.6902 98.332 73.7764 99.4077 73.7764C100.483 73.7764 101.245 74.6855 101.245 76.1563C101.245 77.627 100.488 78.5361 99.4077 78.5361C98.3272 78.5361 97.5752 77.5842 97.5752 76.1563ZM100.907 76.1563C100.907 74.8521 100.298 74.0953 99.4125 74.0953C98.5271 74.0953 97.9179 74.8521 97.9179 76.1563C97.9179 77.4604 98.5271 78.2172 99.4125 78.2172C100.298 78.2172 100.907 77.4414 100.907 76.1563Z" fill="#333C99"/>
<path d="M199.625 198.73C205.856 196.084 213.071 190.881 216.284 184.498C209.37 187.368 203.539 192.349 199.625 198.73Z" fill="#263238"/>
<path d="M200.952 188.825C207.183 186.183 214.399 180.981 217.611 174.598C210.696 177.463 204.865 182.443 200.952 188.825Z" fill="#263238"/>
<path d="M202.767 179.196C209.002 176.55 216.213 171.347 219.426 164.969C212.511 167.835 206.68 172.815 202.767 179.196Z" fill="#263238"/>
<path d="M205.013 169.115C210.891 165.64 217.445 159.452 219.901 152.703C213.369 156.509 208.174 162.241 205.027 169.115" fill="#263238"/>
<path d="M207.431 161.399C211.714 155.797 215.708 147.458 215.656 140.232C210.894 146.327 208.033 153.689 207.431 161.399Z" fill="#263238"/>
<path d="M206.231 165.069C205.365 157.491 202.423 147.967 197.416 142.284C198.261 150.531 201.306 158.4 206.231 165.069Z" fill="#263238"/>
<path d="M204.218 173.356C202.695 165.545 198.839 155.883 193.156 150.404C194.712 158.91 198.534 166.839 204.218 173.356Z" fill="#263238"/>
<path d="M201.905 183.461C200.387 175.636 196.522 165.988 190.867 160.509C192.423 169.015 196.245 176.944 201.929 183.461" fill="#263238"/>
<path d="M200.048 195.869C198.52 188.059 194.665 178.396 188.986 172.918C190.542 181.424 194.364 189.353 200.048 195.869Z" fill="#263238"/>
<path d="M207.721 159.928C207.698 159.965 207.682 160.005 207.674 160.047C207.64 160.138 207.602 160.252 207.555 160.395C207.45 160.723 207.302 161.175 207.122 161.747C206.746 162.922 206.241 164.631 205.646 166.754C205.051 168.877 204.394 171.414 203.718 174.246C203.042 177.078 202.376 180.214 201.748 183.518C201.119 186.821 200.629 189.991 200.215 192.875C199.801 195.76 199.506 198.368 199.292 200.558C199.078 202.747 198.925 204.527 198.849 205.76C198.811 206.36 198.782 206.831 198.759 207.188C198.759 207.34 198.759 207.459 198.759 207.559C198.752 207.6 198.752 207.642 198.759 207.683C198.773 207.643 198.781 207.602 198.782 207.559C198.782 207.464 198.782 207.34 198.82 207.193C198.854 206.85 198.901 206.379 198.959 205.765C199.063 204.542 199.239 202.766 199.477 200.577C199.715 198.387 200.044 195.788 200.453 192.909C200.862 190.029 201.405 186.869 202.005 183.565C202.605 180.262 203.299 177.135 203.952 174.298C204.604 171.461 205.251 168.924 205.827 166.797C206.403 164.669 206.879 162.956 207.226 161.775L207.617 160.409C207.655 160.266 207.683 160.147 207.712 160.052C207.72 160.011 207.724 159.97 207.721 159.928Z" fill="#263238"/>
<path d="M196.579 202.852C199.22 197.321 201.143 189.525 199.849 183.465C196.895 189.472 195.758 196.209 196.579 202.852Z" fill="#455A64"/>
<path d="M192.195 195.689C194.837 190.153 196.76 182.361 195.46 176.302C192.505 182.308 191.371 189.046 192.195 195.689Z" fill="#455A64"/>
<path d="M188.254 188.401C190.895 182.866 192.818 175.074 191.519 169.015C188.564 175.021 187.429 181.759 188.254 188.401Z" fill="#455A64"/>
<path d="M184.37 180.543C186.336 174.688 187.321 166.702 185.322 160.861C183.104 167.191 182.773 174.029 184.37 180.543Z" fill="#455A64"/>
<path d="M181.823 174.108C181.628 167.877 179.795 160.071 175.926 155.469C176.012 162.127 178.064 168.611 181.823 174.108Z" fill="#455A64"/>
<path d="M183.008 177.197C178.425 172.875 171.456 168.577 165.192 168.015C170.092 172.771 176.292 175.967 183.008 177.197Z" fill="#455A64"/>
<path d="M186.107 183.756C180.971 179.681 173.336 175.864 166.739 175.85C172.269 180.345 179.01 183.097 186.107 183.756Z" fill="#455A64"/>
<path d="M189.962 191.662C184.827 187.592 177.197 183.77 170.6 183.756C176.128 188.25 182.868 191.002 189.962 191.662Z" fill="#455A64"/>
<path d="M195.345 200.762C190.209 196.688 182.575 192.871 175.978 192.852C181.506 197.351 188.248 200.104 195.345 200.762Z" fill="#455A64"/>
<path d="M181.242 172.98C181.242 172.98 181.242 173.013 181.271 173.08L181.375 173.375L181.804 174.493C182.18 175.445 182.756 176.873 183.484 178.577C184.95 181.999 187.125 186.669 189.824 191.686C191.176 194.185 192.532 196.536 193.798 198.644C195.065 200.753 196.269 202.628 197.302 204.18C198.335 205.732 199.206 206.974 199.796 207.821L200.5 208.773L200.686 209.021C200.729 209.078 200.752 209.106 200.757 209.102C200.742 209.069 200.724 209.037 200.705 209.006L200.538 208.745C200.372 208.502 200.153 208.169 199.872 207.75C199.282 206.888 198.444 205.632 197.44 204.071C196.435 202.509 195.25 200.624 193.984 198.516C192.718 196.407 191.38 194.051 190.029 191.552C187.33 186.583 185.155 181.919 183.636 178.492C182.884 176.788 182.289 175.402 181.89 174.441L181.414 173.337L181.285 173.051C181.273 173.026 181.259 173.002 181.242 172.98Z" fill="#263238"/>
<path d="M184.003 203.523H210.258V208.583H207.559L205.289 223.014H189.058L186.721 208.583H184.003V203.523Z" fill="#333C99"/>
<path d="M184.003 208.478C184.003 208.411 189.838 208.354 197.035 208.354C204.232 208.354 210.067 208.411 210.067 208.478C210.067 208.545 204.237 208.597 197.035 208.597C189.834 208.597 184.003 208.545 184.003 208.478Z" fill="#263238"/>
<path d="M33.6088 223.024H29.3488L27.7686 203.837H32.7854L33.6088 223.024Z" fill="#263238"/>
<path d="M70.5439 223.024H74.8039L76.3842 203.837H71.3674L70.5439 223.024Z" fill="#263238"/>
<path d="M79.3116 206.269L24.46 207.555L22.794 172.128C22.7547 171.306 22.8827 170.484 23.1702 169.713C23.4578 168.942 23.8988 168.238 24.4667 167.642C25.0345 167.047 25.7174 166.573 26.4739 166.249C27.2304 165.926 28.0447 165.759 28.8675 165.759H75.6037C76.4378 165.759 77.2631 165.931 78.0281 166.263C78.7931 166.595 79.4816 167.082 80.0508 167.691C80.6199 168.301 81.0576 169.021 81.3366 169.808C81.6155 170.594 81.7299 171.429 81.6724 172.261L79.3116 206.269Z" fill="#348347"/>
<path d="M82.1255 172.009H81.9732H81.521L79.7932 172.037H73.4341C68.0651 172.037 60.6494 171.99 52.4626 172.18C44.271 172.451 36.8458 172.404 31.4815 172.323C28.797 172.28 26.6218 172.228 25.1224 172.18L23.3947 172.123H22.9472C22.8967 172.129 22.8455 172.129 22.7949 172.123H22.9472H23.3947H25.1224L31.4815 172.185C36.8505 172.223 44.2662 172.242 52.4578 171.966C60.6494 171.78 68.0651 171.866 73.4341 171.904L79.7932 171.956L81.521 171.98H81.9732L82.1255 172.009Z" fill="#263238"/>
<path d="M42.7993 166.311C41.5664 166.491 40.3668 166.852 39.239 167.382C38.147 167.983 37.1507 168.743 36.2832 169.638C36.4579 169.306 36.6881 169.007 36.9639 168.753C38.2291 167.451 39.8891 166.605 41.6855 166.344C42.0519 166.268 42.429 166.257 42.7993 166.311Z" fill="#263238"/>
<path d="M65.3612 101.897L72.0629 114.144L81.868 108.651L86.6278 110.227C86.6278 110.227 74.6141 123.278 72.6579 123.959C70.7016 124.639 66.9985 124.749 64.8852 122.098C62.9813 119.684 57.3457 107.023 57.3457 107.023L65.3612 101.897Z" fill="#FFBE9D"/>
<path d="M92.9629 93.9008C92.8769 93.7952 92.7652 93.7134 92.6385 93.6634C92.5118 93.6134 92.3744 93.5968 92.2394 93.6152L87.5796 94.2435C87.3771 94.2737 87.1834 94.3472 87.0118 94.4589C86.8401 94.5706 86.6945 94.7179 86.5848 94.8908L76.8701 109.813L77.6126 110.227L82.7818 110.065L93.1105 94.0864L92.9629 93.9008Z" fill="#263238"/>
<path d="M89.6546 95.838C89.6918 95.8971 89.7467 95.943 89.8115 95.9691C89.8763 95.9953 89.9476 96.0005 90.0155 95.9839C90.0833 95.9673 90.1443 95.9297 90.1896 95.8766C90.235 95.8235 90.2625 95.7575 90.2683 95.6879C90.2741 95.6183 90.2579 95.5486 90.222 95.4887C90.186 95.4288 90.1321 95.3817 90.068 95.3541C90.0038 95.3265 89.9326 95.3198 89.8644 95.3349C89.7962 95.35 89.7344 95.3861 89.6879 95.4382C89.6329 95.4884 89.599 95.5574 89.5928 95.6316C89.5866 95.7057 89.6087 95.7795 89.6546 95.838Z" fill="white"/>
<path d="M93.1101 94.0864C92.8139 94.1694 92.5115 94.2283 92.2058 94.2625L89.7307 94.6481L88.0219 94.8956C87.877 94.9085 87.7369 94.9537 87.6117 95.0279C87.4865 95.102 87.3795 95.2031 87.2985 95.324L86.7463 96.1807C85.98 97.3564 85.1471 98.6463 84.2713 99.9885C82.5054 102.692 80.8966 105.134 79.7162 106.895L78.312 108.999C78.1487 109.26 77.9658 109.508 77.7646 109.741C77.8987 109.461 78.058 109.193 78.2406 108.942L79.5734 106.819C80.7109 105.029 82.2912 102.573 84.0571 99.8696C84.9424 98.5225 85.7849 97.2374 86.5512 96.0617C86.7463 95.7714 86.9367 95.4858 87.1176 95.205C87.2191 95.0592 87.3514 94.9375 87.5053 94.8486C87.6591 94.7598 87.8307 94.7059 88.0077 94.6909L89.7259 94.472L92.2153 94.1769C92.5107 94.1231 92.8099 94.0929 93.1101 94.0864Z" fill="#455A64"/>
<path d="M87.9271 99.4126C87.9271 99.4126 87.513 99.3412 87.2845 100.479C87.0561 101.616 86.3326 104.882 86.3326 104.882L84.1526 103.725L81.4205 104.082C81.4205 104.082 80.8255 104.629 81.2634 104.929C81.7013 105.229 83.4244 105.534 83.4244 105.534L84.6952 107.366L81.0445 105.605C81.0445 105.605 79.826 105.924 80.183 106.666C80.54 107.409 83.0008 109.737 83.0008 109.737L81.173 109.598L79.0121 108.275C79.0121 108.275 78.3457 108.309 78.5932 108.875C78.8407 109.441 81.1064 111.498 81.1064 111.498L83.848 112.83C83.848 112.83 85.3473 112.711 85.4901 112.269C85.587 111.921 85.6477 111.563 85.671 111.203C85.671 111.203 86.4659 110.988 86.6229 110.603C86.7104 110.279 86.7282 109.94 86.6753 109.608C86.6753 109.608 87.9224 109.827 88.0794 109.132C88.1885 108.266 88.1531 107.388 87.9747 106.533C87.851 105.995 88.5078 101.021 88.4507 100.874C88.3936 100.726 88.7125 99.0842 87.9271 99.4126Z" fill="#FFBE9D"/>
<path d="M85.5619 112.278C85.3452 112.408 85.1001 112.483 84.8479 112.497C83.6317 112.674 82.3939 112.379 81.3875 111.674C81.0115 111.402 80.8259 111.198 80.8497 111.155C80.8735 111.112 81.7683 111.836 83.1011 112.145C84.4338 112.454 85.5476 112.193 85.5619 112.278Z" fill="#EB996E"/>
<path d="M84.9142 111.293C84.8713 111.355 84.3811 111.103 83.8623 110.674C83.3435 110.246 83.0008 109.822 83.0531 109.77C83.1055 109.717 83.5291 110.041 84.0432 110.46C84.5572 110.879 84.957 111.226 84.9142 111.293Z" fill="#EB996E"/>
<path d="M86.3561 108.927C86.3133 108.989 85.8278 108.742 85.3423 108.29C84.8568 107.837 84.5712 107.381 84.6283 107.338C84.6854 107.295 85.0662 107.657 85.5327 108.09C85.9991 108.523 86.3989 108.861 86.3561 108.927Z" fill="#EB996E"/>
<path d="M87.8746 107.019C87.7984 107.052 87.5223 106.543 87.0892 105.976C86.6561 105.41 86.2324 105.024 86.28 104.948C86.3276 104.872 86.8512 105.205 87.3081 105.805C87.6213 106.139 87.8197 106.564 87.8746 107.019Z" fill="#EB996E"/>
<path d="M89.7269 195.293C89.7632 195.145 89.7632 194.99 89.7269 194.841C89.6497 194.43 89.4876 194.039 89.2509 193.694C89.1735 193.574 89.0825 193.464 88.9796 193.366C88.9122 193.302 88.8288 193.258 88.7383 193.238C88.6478 193.218 88.5536 193.222 88.4655 193.251C88.4137 193.269 88.3667 193.299 88.3279 193.338C88.2892 193.376 88.2597 193.423 88.2418 193.475C88.2085 193.574 88.2085 193.681 88.2418 193.78C88.3068 193.945 88.3865 194.104 88.4798 194.256C88.6559 194.556 88.8035 194.851 89.0319 195.208C89.0986 195.304 89.19 195.379 89.2965 195.427C89.403 195.475 89.5205 195.493 89.6364 195.479C89.8492 195.441 90.0499 195.353 90.2219 195.222C90.5371 194.991 90.8246 194.724 91.0787 194.427C91.2011 194.286 91.3155 194.138 91.4214 193.984C91.5371 193.834 91.6228 193.663 91.6736 193.48C91.7021 193.372 91.6919 193.258 91.645 193.157C91.598 193.056 91.5172 192.975 91.4166 192.928C91.3224 192.9 91.2226 192.897 91.1268 192.918C91.031 192.94 90.9423 192.986 90.8692 193.052C90.6516 193.242 90.4596 193.459 90.298 193.699C90.0586 194.035 89.8679 194.404 89.7316 194.794C89.669 194.931 89.6365 195.08 89.6364 195.232C89.862 194.731 90.1345 194.253 90.4504 193.804C90.6117 193.59 90.7969 193.395 91.0025 193.223C91.112 193.147 91.2452 193.094 91.3262 193.137C91.3732 193.165 91.4092 193.208 91.4283 193.259C91.4473 193.31 91.4483 193.366 91.4309 193.418C91.3815 193.567 91.3057 193.705 91.2072 193.827C91.1072 193.97 90.9977 194.108 90.8835 194.246C90.6371 194.523 90.3628 194.773 90.0648 194.994C89.9255 195.101 89.7621 195.173 89.5888 195.203C89.5178 195.212 89.4458 195.2 89.3809 195.17C89.3161 195.14 89.2612 195.092 89.2223 195.032C89.0367 194.76 88.8558 194.422 88.6797 194.142C88.5988 193.994 88.4989 193.851 88.4513 193.732C88.4037 193.613 88.4513 193.518 88.5226 193.48C88.7273 193.399 88.932 193.632 89.07 193.827C89.3795 194.27 89.6023 194.768 89.7269 195.293Z" fill="#263238"/>
<path d="M78.0314 195.693L72.2245 208.283L62.8525 203.951L68.8594 188.373L78.0314 195.693Z" fill="#FFBE9D"/>
<path d="M73.2998 207.44L69.9061 213.914C69.9061 213.914 78.5927 222.895 77.7788 224.904L57.3594 215.113L62.9664 202.133L73.2998 207.44Z" fill="#455A64"/>
<path d="M64.0381 210.001C63.8137 209.973 63.5866 210.025 63.3973 210.149C63.208 210.273 63.0691 210.46 63.0053 210.677C62.9622 210.901 63.0069 211.132 63.1301 211.324C63.2533 211.515 63.4455 211.652 63.6669 211.705C63.9052 211.741 64.1485 211.688 64.3498 211.555C64.551 211.422 64.6961 211.22 64.7569 210.986C64.7771 210.748 64.704 210.511 64.5531 210.326C64.4022 210.14 64.1851 210.02 63.9477 209.992" fill="#E0E0E0"/>
<g opacity="0.6">
<path d="M57.3789 215.113L58.2261 213.485L77.4889 223.481C77.4889 223.481 78.2077 224.309 77.7983 224.909L57.3789 215.113Z" fill="white"/>
</g>
<path d="M70.3062 213.966C70.2586 214.066 69.7351 213.871 69.0925 213.966C68.4499 214.061 67.9835 214.347 67.9121 214.261C67.8407 214.175 68.2643 213.676 69.0449 213.585C69.8255 213.495 70.3729 213.885 70.3062 213.966Z" fill="#263238"/>
<path d="M72.0249 215.879C72.0249 215.989 71.487 215.951 70.9492 216.208C70.4113 216.465 70.0972 216.869 69.9972 216.817C69.8973 216.765 70.1067 216.17 70.7873 215.865C71.468 215.561 72.0677 215.784 72.0249 215.879Z" fill="#263238"/>
<path d="M72.0102 219.026C71.9102 219.026 72.0102 218.44 72.529 218.017C73.0478 217.593 73.619 217.598 73.619 217.702C73.619 217.807 73.1954 217.959 72.7718 218.312C72.3481 218.664 72.1149 219.064 72.0102 219.026Z" fill="#263238"/>
<path d="M71.2827 211.477C71.1971 211.548 70.8068 211.191 70.2261 210.958C69.6454 210.725 69.1171 210.691 69.1075 210.582C69.098 210.472 69.6882 210.32 70.3689 210.582C71.0495 210.844 71.3684 211.42 71.2827 211.477Z" fill="#263238"/>
<path d="M75.2333 205.76L90.5454 167.449C90.5454 167.449 90.198 160.909 88.9938 158.848C87.7895 156.787 51.3202 144.74 51.3202 144.74C51.3202 144.74 42.0339 142.503 35.8366 144.74C29.6394 146.977 24.9986 154.735 25.8411 159.019C26.6836 163.303 30.3296 166.478 30.3296 166.478L57.1509 167.277L71.7682 172.608L61.925 200.819L75.2333 205.76Z" fill="#263238"/>
<path d="M88.8502 179.581L89.1977 193.437L78.8737 193.694L77.3887 177.063L88.8502 179.581Z" fill="#FFBE9D"/>
<path d="M89.8116 192.2L89.6212 199.506C89.6212 199.506 101.378 203.728 101.521 205.893L78.8784 206.122L78.1787 192L89.8116 192.2Z" fill="#455A64"/>
<path d="M82.61 198.597C82.3928 198.665 82.2086 198.811 82.0926 199.007C81.9767 199.203 81.9372 199.435 81.9817 199.658C82.0422 199.878 82.1845 200.065 82.3792 200.183C82.574 200.301 82.8065 200.34 83.0289 200.291C83.2583 200.217 83.4524 200.061 83.5737 199.853C83.695 199.645 83.7349 199.399 83.6857 199.163C83.6001 198.94 83.4309 198.759 83.2141 198.659C82.9973 198.558 82.7498 198.546 82.5243 198.625" fill="#E0E0E0"/>
<g opacity="0.6">
<path d="M78.8936 206.122L78.9364 204.285L100.631 204.761C100.631 204.761 101.641 205.189 101.536 205.903L78.8936 206.122Z" fill="white"/>
</g>
<path d="M89.988 199.387C89.988 199.496 89.4311 199.553 88.8932 199.915C88.3553 200.277 88.065 200.743 87.965 200.701C87.8651 200.658 88.0222 200.015 88.6838 199.592C89.3454 199.168 90.0118 199.287 89.988 199.387Z" fill="#263238"/>
<path d="M92.3727 200.344C92.4012 200.453 91.9205 200.643 91.5492 201.115C91.178 201.586 91.0732 202.067 90.9685 202.067C90.8638 202.067 90.7781 201.438 91.2541 200.858C91.7301 200.277 92.3679 200.239 92.3727 200.344Z" fill="#263238"/>
<path d="M93.7678 203.176C93.6678 203.199 93.5107 202.647 93.7678 202.038C94.0248 201.429 94.5626 201.186 94.6102 201.276C94.6578 201.367 94.3389 201.695 94.1343 202.195C93.9296 202.695 93.8582 203.161 93.7678 203.176Z" fill="#263238"/>
<path d="M89.7593 196.721C89.7164 196.821 89.2072 196.674 88.5836 196.721C87.9601 196.769 87.4746 196.974 87.4127 196.878C87.3508 196.783 87.8173 196.402 88.5551 196.34C89.2928 196.279 89.8164 196.631 89.7593 196.721Z" fill="#263238"/>
<path d="M82.8201 141.103C82.8201 141.103 89.0078 140.628 89.6932 147.32C90.3786 154.012 91.0545 185.341 91.0545 185.341L76.6324 186.545L74.3953 154.545L51.3438 144.74C51.3438 144.74 78.6934 140.247 82.8201 141.103Z" fill="#263238"/>
<path d="M57.3361 132.05C57.3361 132.05 61.0868 142.574 60.3728 143.745C59.6589 144.916 50.0108 149.742 50.0108 149.742L25.8597 159.019C25.8597 159.019 23.3799 155.073 23.3799 149.024C23.3799 142.974 31.7809 132.06 31.7809 132.06L57.3361 132.05Z" fill="#263238"/>
<path d="M50.1777 144.221C50.2136 144.246 50.2518 144.266 50.292 144.283L50.6347 144.44L51.9722 145.035L56.9937 147.224L74.3241 154.683L74.2431 154.574C74.4621 157.734 74.7191 161.147 74.9428 164.679C75.533 172.937 76.0756 180.548 76.504 186.574V186.683H76.6135L87.1421 185.76L90.0408 185.488L90.7976 185.412L91.0546 185.374C90.9675 185.367 90.88 185.367 90.7929 185.374L90.0361 185.422L87.1326 185.636L76.5945 186.464L76.7135 186.564C76.2994 180.543 75.7615 172.927 75.2094 164.669C74.9619 161.137 74.7334 157.725 74.4954 154.564V154.488L74.424 154.455L57.0556 147.077L52.0055 144.964L50.6537 144.407L50.3015 144.269C50.2615 144.25 50.2202 144.234 50.1777 144.221Z" fill="#455A64"/>
<path d="M30.9717 145.254C31.2043 145.218 31.4325 145.157 31.6523 145.073L33.4706 144.483C35.455 143.812 37.4889 143.298 39.5535 142.945C41.6192 142.608 43.7279 142.636 45.7841 143.026C47.3548 143.355 48.2592 143.802 48.2782 143.75C48.083 143.618 47.8719 143.51 47.6499 143.431C47.0601 143.183 46.4503 142.985 45.8269 142.841C43.7491 142.388 41.6042 142.333 39.5059 142.679C37.4247 143.031 35.3804 143.574 33.3992 144.302C32.6376 144.573 32.0283 144.807 31.6047 144.973C31.3863 145.049 31.1746 145.143 30.9717 145.254Z" fill="#455A64"/>
<path d="M34.3848 139.709C35.0886 139.666 35.7943 139.666 36.4981 139.709C37.1502 139.752 37.926 139.852 38.7828 139.952C39.6396 140.052 40.5867 140.171 41.5673 140.356C43.2449 140.623 44.853 141.22 46.2985 142.112C46.8753 142.514 47.4239 142.955 47.9406 143.431C47.8459 143.264 47.7272 143.112 47.5884 142.979C47.2315 142.594 46.8341 142.25 46.4032 141.951C44.9582 140.996 43.3255 140.361 41.6149 140.09C40.6248 139.904 39.6729 139.794 38.8114 139.704C37.9498 139.614 37.1692 139.537 36.5076 139.518C35.9863 139.495 35.4639 139.518 34.9464 139.585C34.7542 139.599 34.5651 139.641 34.3848 139.709Z" fill="#455A64"/>
<path d="M45.0507 55.1562C42.2758 54.6803 39.815 55.7512 37.4875 57.3172C35.1053 58.9916 33.2899 61.3522 32.2831 64.0843C31.2763 66.8165 31.1259 69.7905 31.8519 72.6103C32.2539 74.0434 32.9419 75.3802 33.8744 76.5402C34.807 77.7001 35.9648 78.6592 37.278 79.3597C40.8907 81.1922 45.5124 80.5544 48.7491 78.1079C51.9857 75.6613 53.8277 71.6203 53.9848 67.5697C54.1347 64.7605 53.3989 61.9752 51.881 59.6066C51.1115 58.4365 50.1091 57.4374 48.9364 56.6717C47.7637 55.906 46.4459 55.3901 45.065 55.1562" fill="#263238"/>
<path d="M37.15 64.6043C37.5594 63.5381 37.3976 62.353 37.5594 61.2249C37.9164 58.7451 39.9393 56.7555 42.224 55.7892C44.3754 54.8896 46.9837 55.0848 49.5921 55.9225C51.3913 56.4678 52.9978 57.5146 54.2233 58.9402C55.0033 59.9074 55.54 61.0475 55.7884 62.2649C56.0369 63.4824 55.9898 64.7416 55.6513 65.9371L42.9617 64.0903C41.7718 65.0708 40.5533 66.0751 39.1111 66.6225C38.6953 66.8048 38.2396 66.877 37.7879 66.8319C37.5628 66.8051 37.3503 66.7141 37.1755 66.5698C37.0008 66.4255 36.8714 66.2339 36.8026 66.018C36.6883 65.5372 36.9739 65.066 37.15 64.6043Z" fill="#263238"/>
<path d="M49.8628 59.4257L38.7821 61.7771C38.2685 61.8111 37.7861 62.0353 37.4288 62.4057C37.0715 62.7762 36.865 63.2665 36.8496 63.7809L36.9829 87.7654C36.9941 89.403 37.5426 90.9915 38.5441 92.2872L39.6008 93.6485C42.014 96.7566 46.8927 96.4425 48.7348 92.9678C48.8474 92.7705 48.9338 92.5593 48.9918 92.3396C49.0251 92.1254 49.0822 91.9826 49.0917 91.8017L49.3059 89.4599C49.4106 87.3275 49.4297 85.1761 49.4297 85.1761C49.4297 85.1761 53.9657 84.6049 55.1414 78.7599C55.7173 75.8565 55.7554 71.0539 55.6602 67.127C55.5603 63.6096 53.3946 59.1925 49.8628 59.4257Z" fill="#FFBE9D"/>
<path d="M53.962 71.6489C53.9558 71.845 53.8732 72.0309 53.7318 72.167C53.5904 72.303 53.4014 72.3784 53.2052 72.3771C53.1088 72.3816 53.0125 72.3666 52.9221 72.3331C52.8316 72.2996 52.7489 72.2482 52.6787 72.182C52.6085 72.1159 52.5524 72.0362 52.5136 71.9479C52.4749 71.8596 52.4543 71.7644 52.4531 71.6679C52.4605 71.4717 52.5433 71.286 52.6843 71.1494C52.8253 71.0128 53.0136 70.936 53.2099 70.9349C53.3065 70.9311 53.4029 70.9466 53.4934 70.9807C53.5838 71.0147 53.6666 71.0666 53.7367 71.1331C53.8068 71.1997 53.8628 71.2796 53.9015 71.3682C53.9402 71.4568 53.9608 71.5522 53.962 71.6489Z" fill="#263238"/>
<path d="M54.5138 69.5973C54.4139 69.6925 53.8617 69.2499 53.0478 69.2213C52.2339 69.1928 51.6199 69.5735 51.5437 69.4688C51.4676 69.3641 51.6008 69.2499 51.8674 69.0738C52.2283 68.8419 52.6527 68.7288 53.0811 68.7501C53.502 68.7644 53.9072 68.9129 54.2377 69.1737C54.4805 69.3784 54.5614 69.5593 54.5138 69.5973Z" fill="#263238"/>
<path d="M46.6887 71.4632C46.6837 71.6602 46.6016 71.8473 46.4601 71.9844C46.3185 72.1215 46.1289 72.1975 45.9319 72.1962C45.8359 72.2 45.7401 72.1846 45.6502 72.1508C45.5603 72.117 45.4781 72.0655 45.4085 71.9994C45.3388 71.9333 45.2831 71.8539 45.2447 71.7659C45.2062 71.6778 45.1858 71.583 45.1846 71.487C45.1895 71.2909 45.271 71.1044 45.4115 70.9675C45.552 70.8305 45.7404 70.7539 45.9366 70.754C46.0328 70.7502 46.1288 70.7656 46.219 70.7993C46.3091 70.8331 46.3916 70.8845 46.4617 70.9506C46.5317 71.0166 46.5879 71.096 46.6268 71.184C46.6658 71.272 46.6868 71.3669 46.6887 71.4632Z" fill="#263238"/>
<path d="M46.8077 69.4022C46.7078 69.4974 46.1556 69.05 45.3417 69.0215C44.5278 68.9929 43.9138 69.3737 43.8376 69.2737C43.7615 69.1738 43.8947 69.0548 44.1661 68.8739C44.5268 68.6456 44.9485 68.5327 45.375 68.5502C45.7976 68.5672 46.204 68.7171 46.5364 68.9786C46.7744 69.1785 46.8553 69.3594 46.8077 69.4022Z" fill="#263238"/>
<path d="M49.2394 75.5709C49.6737 75.459 50.1192 75.3967 50.5674 75.3852C50.7768 75.3852 50.972 75.3376 51.0148 75.1996C51.0393 74.9866 50.9995 74.7711 50.9006 74.5808C50.7245 74.0715 50.5389 73.5384 50.3485 72.9768C49.5821 70.6968 49.0395 68.8263 49.13 68.7977C49.2204 68.7691 49.9201 70.5921 50.6816 72.8721C50.8625 73.4337 51.0386 73.9668 51.2052 74.4809C51.3275 74.7359 51.3545 75.0263 51.2814 75.2995C51.2478 75.371 51.1988 75.4341 51.1379 75.4843C51.077 75.5345 51.0057 75.5706 50.9292 75.5899C50.8133 75.6138 50.6952 75.625 50.5769 75.6232C50.1307 75.6651 49.681 75.6475 49.2394 75.5709Z" fill="#263238"/>
<path d="M49.4304 85.2C46.6605 85.1367 43.9628 84.3044 41.6387 82.7963C41.6387 82.7963 43.4569 86.942 49.3638 86.6041L49.4304 85.2Z" fill="#EB996E"/>
<path d="M48.8207 77.5129C48.6738 77.3127 48.4782 77.1535 48.2525 77.0502C48.0267 76.9469 47.7783 76.903 47.5308 76.9227C47.348 76.9324 47.1691 76.9796 47.0053 77.0615C46.8415 77.1434 46.6963 77.2582 46.5789 77.3987C46.4674 77.5283 46.3978 77.6885 46.3791 77.8584C46.3604 78.0283 46.3936 78.1999 46.4742 78.3506C46.5991 78.5006 46.7658 78.6101 46.9531 78.6652C47.1404 78.7202 47.3398 78.7184 47.5261 78.66C47.9155 78.5402 48.2766 78.3427 48.5875 78.0793C48.6826 78.0198 48.7651 77.9422 48.8302 77.8508C48.8601 77.8057 48.8761 77.7527 48.8761 77.6985C48.8761 77.6444 48.8601 77.5914 48.8302 77.5462" fill="#EB996E"/>
<path d="M46.8314 76.0421C46.9647 76.0421 46.9314 76.9179 47.6596 77.5747C48.3879 78.2315 49.3303 78.1697 49.3351 78.2934C49.3351 78.3458 49.1161 78.4553 48.7211 78.4505C48.2041 78.4371 47.7085 78.2416 47.3217 77.8984C46.954 77.5742 46.7256 77.1207 46.6839 76.6323C46.6458 76.2467 46.7696 76.0325 46.8314 76.0421Z" fill="#263238"/>
<path d="M46.7598 66.9938C46.6741 67.2128 45.865 67.0747 44.9083 67.1509C43.9516 67.2271 43.1757 67.4603 43.0567 67.2556C43.0044 67.1604 43.1424 66.9558 43.4613 66.7558C43.8841 66.5056 44.3607 66.3604 44.8512 66.3322C45.3382 66.2908 45.8281 66.3675 46.2791 66.5559C46.6456 66.7082 46.7979 66.8891 46.7598 66.9938Z" fill="#263238"/>
<path d="M54.4135 66.0419C54.2659 66.2228 53.7138 66.0086 53.0427 65.9705C52.3715 65.9324 51.7956 66.0467 51.6719 65.8515C51.6147 65.7563 51.7147 65.5755 51.967 65.4089C52.3086 65.2073 52.7046 65.1174 53.0998 65.1518C53.4936 65.1731 53.8712 65.3161 54.1803 65.5612C54.4087 65.7611 54.4801 65.9562 54.4135 66.0419Z" fill="#263238"/>
<path d="M35.1171 62.8909C36.2689 59.5162 41.3048 54.9183 44.8365 55.2372L50.453 58.7546C50.2486 59.7205 49.7868 60.6131 49.1165 61.3379C48.4461 62.0627 47.5922 62.5928 46.6452 62.8718C45.6314 63.1574 44.4224 63.2193 43.7894 64.0713C43.1563 64.9233 43.4943 66.2322 42.9088 67.1271C42.0949 68.3741 39.9482 68.2694 39.3295 69.6212C39.0629 70.2114 39.1819 70.9254 38.9011 71.5251C38.5298 72.3057 36.5212 73.2624 35.6978 72.9863C34.8743 72.7103 34.9029 71.3062 34.6506 70.5636C34.3259 69.7283 34.3024 68.806 34.584 67.9553C34.9933 66.2846 34.5697 64.4997 35.1171 62.8909Z" fill="#263238"/>
<path d="M38.1354 73.7146C38.1354 73.2767 37.6594 72.2248 37.2548 72.1391C36.1077 71.9154 34.0229 71.9297 33.8897 74.8617C33.7088 78.8694 37.7689 78.2221 37.7832 78.1079C37.7974 77.9936 38.0783 75.2282 38.1354 73.7146Z" fill="#FFBE9D"/>
<path d="M36.6498 76.5372C36.6498 76.5372 36.5784 76.58 36.4546 76.6276C36.2882 76.6946 36.1023 76.6946 35.9358 76.6276C35.517 76.4515 35.1933 75.7613 35.2028 75.0426C35.2106 74.6973 35.2934 74.3579 35.4456 74.0478C35.4896 73.9246 35.5628 73.8139 35.659 73.7252C35.7551 73.6365 35.8714 73.5725 35.9977 73.5385C36.0784 73.5201 36.163 73.5311 36.2363 73.5695C36.3095 73.6079 36.3667 73.6712 36.3975 73.748C36.4451 73.8622 36.3975 73.9431 36.4404 73.9479C36.4832 73.9526 36.526 73.886 36.5022 73.7194C36.4873 73.6193 36.4365 73.528 36.3594 73.4624C36.3066 73.4172 36.2453 73.383 36.1791 73.3617C36.1129 73.3405 36.0432 73.3326 35.9739 73.3386C35.8081 73.3648 35.6516 73.4326 35.5192 73.5359C35.3868 73.6391 35.2829 73.7744 35.2171 73.9288C35.0321 74.2679 34.9325 74.6469 34.9268 75.0331C34.9268 75.8423 35.2933 76.6181 35.8787 76.8133C35.9848 76.8489 36.0974 76.8605 36.2085 76.8473C36.3197 76.8341 36.4265 76.7965 36.5213 76.7371C36.6117 76.6324 36.6498 76.542 36.6498 76.5372Z" fill="#EB996E"/>
<path d="M34.2705 61.877C34.2705 60.6204 32.7188 59.8017 31.4956 59.4971C30.2475 59.2827 28.964 59.5279 27.8829 60.1873C27.2403 60.5395 26.593 61.044 26.455 61.7628C26.317 62.4815 27.0024 63.3382 27.6878 63.0812C27.3528 63.1908 27.0463 63.3734 26.7905 63.6159C26.5348 63.8583 26.336 64.1546 26.2086 64.4832C26.0813 64.8118 26.0285 65.1646 26.0541 65.5161C26.0798 65.8677 26.1831 66.2091 26.3568 66.5158C26.5305 66.8225 26.7701 67.0868 27.0583 67.2896C27.3466 67.4924 27.6763 67.6286 28.0236 67.6885C28.3709 67.7483 28.7272 67.7303 29.0667 67.6356C29.4062 67.541 29.7204 67.3722 29.9867 67.1413C29.639 68.3037 28.9032 69.3118 27.902 69.9972C28.9376 70.1458 29.9942 70.0189 30.9652 69.6293C31.9363 69.2396 32.7875 68.601 33.4332 67.7777C34.0789 66.9545 34.4962 65.9756 34.6432 64.9397C34.7902 63.9038 34.6617 62.8474 34.2705 61.877Z" fill="#263238"/>
<path d="M31.4811 68.2266C31.362 67.8368 31.3105 67.4295 31.3288 67.0224C31.3128 65.0423 31.9633 63.1144 33.1756 61.5487C33.4045 61.212 33.6914 60.9187 34.0228 60.6824C33.1857 61.7512 32.5179 62.9424 32.0428 64.2141C31.305 66.356 31.5716 68.2314 31.4811 68.2266Z" fill="#333C99"/>
<path d="M49.2822 57.5456C49.6487 59.1782 52.1381 61.2677 53.2186 62.5386C55.2938 64.9613 55.7032 65.7657 55.6841 71.1871C56.6646 69.3165 57.4167 67.4792 57.3405 65.3707C57.2943 63.2347 56.4681 61.1895 55.0177 59.6209C54.292 58.8555 53.3981 58.2695 52.4067 57.9093C51.4154 57.5491 50.3538 57.4246 49.306 57.5456" fill="#263238"/>
<path d="M66.2798 102.135C66.2798 102.135 61.9579 94.9337 60.7585 93.4772C59.7953 92.3515 58.585 91.4636 57.222 90.8831C56.6836 90.6507 56.1196 90.4829 55.5418 90.3833L49.3255 89.0078C49.3255 89.0078 49.3255 93.2487 44.8751 93.5105C40.4247 93.7723 36.6931 87.5798 36.6931 87.5798C36.6931 87.5798 29.5106 88.6936 27.797 89.5789C26.0835 90.4643 23.38 91.5828 21.8949 99.0033L20.8525 106.276L33.2279 107.419L34.4131 125.81L40.5485 130.094C40.5485 130.094 57.5647 134.516 58.6356 134.806C59.7066 135.097 60.0635 107.428 60.0635 107.428C60.0635 107.428 64.4711 104.615 66.2798 102.135Z" fill="#263238"/>
<path d="M58.1309 99.0414C58.2311 99.2096 58.3126 99.3884 58.3736 99.5745C58.5116 99.9219 58.6925 100.431 58.8924 101.069C59.9329 104.411 60.3618 107.913 60.1585 111.407C60.1204 112.074 60.0681 112.611 60.011 112.983C59.9984 113.176 59.9649 113.368 59.911 113.554C59.8883 113.361 59.8883 113.166 59.911 112.973C59.9348 112.602 59.9634 112.064 59.9777 111.398C60.024 109.665 59.9445 107.931 59.7397 106.21C59.525 104.491 59.1846 102.79 58.7211 101.121C58.545 100.479 58.3879 99.96 58.2737 99.6078C58.2063 99.4245 58.1584 99.2347 58.1309 99.0414Z" fill="#455A64"/>
<path d="M57.5926 129.166L34.2698 124.092L33.1941 107.433L22.832 106.481C22.832 106.481 23.2176 117.866 23.6126 121.236C24.1886 126.105 27.0635 132.75 28.7484 134.087C30.4334 135.425 58.616 134.816 58.616 134.816L57.5926 129.166Z" fill="#FFBE9D"/>
<path d="M70.83 132.184C70.7525 132.345 70.6286 132.479 70.4742 132.569C70.3198 132.658 70.142 132.7 69.9637 132.688C69.8877 132.683 69.8126 132.668 69.74 132.645C69.2212 132.479 69.2641 131.427 69.2641 131.427L66.7985 131.027C66.7985 131.027 63.5856 133.097 62.4433 134.468C61.301 135.839 58.388 134.73 58.388 134.73L57.3789 129.466L61.9245 125.358C61.9245 125.358 61.6484 125.601 61.9626 124.835C62.2767 124.068 63.6999 124.359 63.6999 124.359C63.9236 123.978 64.8565 123.844 64.8565 123.844L68.8452 124.32C69.2504 124.367 69.64 124.505 69.9851 124.722C70.3303 124.94 70.6223 125.232 70.8395 125.577L72.5293 128.247C72.5293 128.247 73.4193 130.151 73.2765 130.627C73.213 130.818 73.0796 130.978 72.9031 131.075C72.7266 131.172 72.52 131.199 72.3246 131.151C72.3246 131.151 72.1294 132.417 71.7962 132.46C71.4559 132.442 71.1219 132.361 70.811 132.222L70.83 132.184Z" fill="#FFBE9D"/>
<path d="M62.3525 128.404C62.3525 128.447 62.8856 128.404 63.7376 128.433C64.844 128.486 65.9379 128.691 66.9886 129.042C67.5669 129.236 68.1288 129.477 68.6688 129.761C69.1447 130.032 69.6493 130.237 69.8063 130.603C69.8418 130.679 69.8565 130.763 69.849 130.847C69.8415 130.931 69.812 131.011 69.7635 131.079C69.6913 131.192 69.5868 131.28 69.4636 131.332C69.3506 131.371 69.2311 131.389 69.1114 131.384C69.1114 131.384 69.2352 131.493 69.4922 131.427C69.6474 131.385 69.7834 131.29 69.8777 131.16C69.9463 131.073 69.9911 130.97 70.0078 130.861C70.0245 130.752 70.0125 130.64 69.9729 130.537C69.8715 130.308 69.7063 130.113 69.497 129.975C69.278 129.837 69.0495 129.689 68.7973 129.551C68.2506 129.252 67.6789 129 67.0885 128.799C66.0152 128.436 64.8897 128.252 63.7567 128.252C63.2835 128.229 62.8096 128.28 62.3525 128.404Z" fill="#EB996E"/>
<path d="M62.0674 130.946C62.0674 131.022 63.6952 130.946 65.6896 131.07C67.6839 131.194 69.2832 131.432 69.2975 131.355C68.9647 131.225 68.6156 131.14 68.2598 131.103C67.4139 130.96 66.5606 130.864 65.7038 130.818C64.8462 130.77 63.9865 130.77 63.1288 130.818C62.7708 130.811 62.4136 130.855 62.0674 130.946Z" fill="#EB996E"/>
<path d="M70.8062 132.084C70.8412 131.945 70.8588 131.803 70.8585 131.66C70.8828 131.27 70.8828 130.879 70.8585 130.489C70.845 130.217 70.8084 129.946 70.749 129.68C70.6773 129.368 70.5446 129.074 70.3587 128.814C69.9658 128.211 69.4579 127.692 68.8642 127.286C68.2779 126.88 67.6369 126.559 66.9603 126.334C66.399 126.175 65.8202 126.087 65.2372 126.072C64.7612 126.072 64.3519 126.072 64.0758 126.072C63.9317 126.063 63.7869 126.077 63.6475 126.115C64.1712 126.19 64.6988 126.234 65.2277 126.248C65.7928 126.286 66.3517 126.388 66.8936 126.553C67.5429 126.79 68.1589 127.11 68.7261 127.505C69.2876 127.898 69.7716 128.392 70.1541 128.961C70.4671 129.424 70.6466 129.964 70.6729 130.522C70.7776 131.47 70.7538 132.084 70.8062 132.084Z" fill="#EB996E"/>
<path d="M65.0518 124.849C65.0518 124.887 65.6467 124.906 66.5987 125.015C67.5506 125.125 68.9786 125.22 69.8211 126.486C70.6317 127.431 71.3076 128.483 71.8297 129.613C72.0025 130.099 72.1299 130.599 72.2105 131.108C72.2385 130.968 72.2385 130.824 72.2105 130.684C72.1861 130.298 72.1076 129.916 71.9772 129.552C71.4947 128.377 70.8244 127.289 69.9924 126.329C69.7702 126.035 69.511 125.771 69.2213 125.544C68.9356 125.337 68.6122 125.188 68.2694 125.106C67.7169 124.958 67.1507 124.867 66.5796 124.835C66.0716 124.779 65.5587 124.784 65.0518 124.849Z" fill="#EB996E"/>
<path d="M63.3051 133.621C63.3895 133.568 63.4691 133.507 63.5431 133.44L64.2095 132.902C65.0479 132.251 65.9236 131.648 66.8321 131.098H66.775L69.2405 131.517L69.1549 131.412C69.147 131.615 69.163 131.818 69.2025 132.017C69.2349 132.239 69.3326 132.446 69.4833 132.612C69.5737 132.694 69.6863 132.747 69.807 132.764C69.9218 132.786 70.0396 132.786 70.1544 132.764C70.3941 132.729 70.6126 132.607 70.7684 132.422C70.8101 132.378 70.8468 132.33 70.8779 132.279L70.9017 132.236L70.7589 132.288L70.8351 132.317C70.9398 132.36 71.0445 132.398 71.154 132.431C71.2634 132.464 71.3729 132.493 71.4919 132.517C71.5537 132.522 71.6158 132.522 71.6775 132.517C71.7561 132.522 71.8346 132.507 71.906 132.474C72.0143 132.389 72.0967 132.275 72.144 132.146C72.1943 132.036 72.2357 131.923 72.2678 131.808C72.3347 131.578 72.3872 131.344 72.4248 131.108L72.282 131.208C72.4493 131.243 72.6228 131.232 72.7844 131.177C72.946 131.121 73.0898 131.024 73.2007 130.894C73.3107 130.759 73.3712 130.591 73.372 130.418C73.3587 130.257 73.33 130.097 73.2863 129.942C73.0995 129.335 72.8721 128.742 72.6057 128.166L71.7061 126.738L71.1349 125.839C70.9614 125.524 70.7522 125.23 70.5114 124.963C70.2563 124.706 69.9519 124.504 69.6166 124.368C69.2897 124.247 68.9462 124.176 68.598 124.159L64.8425 123.735H64.814C64.588 123.771 64.3664 123.83 64.1523 123.911C63.9239 123.98 63.7236 124.12 63.5812 124.311L63.7192 124.268C63.5162 124.174 63.2934 124.132 63.0701 124.144C62.8469 124.157 62.6301 124.224 62.4388 124.339C62.1057 124.582 61.879 124.943 61.8058 125.349L61.8343 125.296L58.7024 128.114L57.8599 128.89C57.7561 128.974 57.6619 129.07 57.5791 129.175C57.6908 129.102 57.7959 129.019 57.8932 128.928L58.7738 128.19L61.9581 125.439H61.9819V125.406C62.05 125.052 62.2489 124.738 62.5388 124.525C62.7024 124.432 62.8859 124.38 63.0738 124.373C63.2618 124.365 63.4488 124.403 63.6193 124.482L63.7049 124.516L63.7573 124.439C63.8814 124.292 64.0474 124.186 64.2333 124.135C64.4323 124.062 64.6379 124.01 64.8473 123.978H64.814L68.5694 124.42C68.8949 124.44 69.2157 124.507 69.5214 124.62C69.8252 124.742 70.1007 124.925 70.3305 125.158C70.5578 125.413 70.7557 125.692 70.9207 125.991L71.4919 126.895C71.8013 127.371 72.1059 127.847 72.3915 128.323C72.6563 128.884 72.8806 129.463 73.0626 130.056C73.1047 130.194 73.1319 130.336 73.1435 130.48C73.1461 130.603 73.1038 130.723 73.0246 130.818C72.9436 130.912 72.8383 130.983 72.7201 131.023C72.6018 131.062 72.4751 131.069 72.3534 131.041H72.2249V131.16C72.1886 131.387 72.1393 131.611 72.0774 131.831C72.037 132.028 71.9487 132.211 71.8203 132.364C71.7872 132.37 71.7535 132.37 71.7204 132.364H71.5681C71.4681 132.364 71.3634 132.317 71.2587 132.288L70.9541 132.184L70.8827 132.155L70.7351 132.207V132.236C70.712 132.277 70.6849 132.315 70.6542 132.35C70.5332 132.495 70.3643 132.591 70.1782 132.621C70.0888 132.641 69.9963 132.641 69.9069 132.621C69.8229 132.613 69.7433 132.58 69.6784 132.526C69.4696 132.225 69.375 131.858 69.4119 131.493V131.403H69.3262L66.8511 131.017H66.8226H66.7988C65.8933 131.584 65.0267 132.211 64.2047 132.893C63.9191 133.136 63.7049 133.331 63.5621 133.464C63.4711 133.507 63.3849 133.56 63.3051 133.621Z" fill="#EB996E"/>
<path d="M101.059 116.871L70.3729 117.124C69.3734 117.124 68.4262 117.6 68.2739 118.585L64.942 140.956H49.111C48.8782 140.973 48.6604 141.077 48.5013 141.248C48.3423 141.419 48.2539 141.643 48.2539 141.877C48.2539 142.11 48.3423 142.335 48.5013 142.506C48.6604 142.677 48.8782 142.781 49.111 142.798H99.6027L103.054 119.189C103.097 118.902 103.077 118.609 102.997 118.331C102.917 118.052 102.777 117.793 102.588 117.573C102.398 117.353 102.164 117.177 101.9 117.056C101.636 116.934 101.349 116.872 101.059 116.871Z" fill="#E0E0E0"/>
<path d="M101.059 116.871C101.219 116.865 101.379 116.881 101.535 116.919C101.943 117.016 102.311 117.237 102.589 117.551C102.867 117.866 103.041 118.258 103.087 118.675C103.098 119.099 103.06 119.522 102.972 119.937L102.53 123.054C101.854 127.743 100.883 134.502 99.6737 142.812V142.893H99.5928L50.61 142.922H49.2916C49.052 142.944 48.8108 142.898 48.5966 142.788C48.4329 142.699 48.2962 142.566 48.201 142.406C48.1059 142.245 48.0557 142.061 48.0557 141.875C48.0557 141.688 48.1059 141.504 48.201 141.344C48.2962 141.183 48.4329 141.051 48.5966 140.961C48.8116 140.853 49.0525 140.809 49.2916 140.832H64.9227L64.8037 140.937C66.0079 132.926 67.136 125.453 68.1355 118.747C68.1685 118.299 68.3731 117.881 68.7067 117.581C69.0397 117.3 69.4459 117.12 69.8776 117.062C70.2888 117.022 70.7021 117.008 71.1151 117.019H72.3193L76.9411 116.99L85.1517 116.938L96.8417 116.876H101.049C101.049 116.876 100.959 116.876 100.778 116.876H99.9689L96.8417 116.919L85.1517 117.048L76.9411 117.133L72.3193 117.176H71.1151C70.7132 117.169 70.3112 117.183 69.9109 117.219C69.5155 117.271 69.1436 117.436 68.84 117.695C68.6919 117.828 68.5715 117.989 68.4857 118.169C68.4 118.348 68.3505 118.543 68.3402 118.742C67.3406 125.449 66.2268 132.921 65.0083 140.932V141.037H49.3011C49.1055 141.012 48.9069 141.045 48.7299 141.132C48.5688 141.225 48.4445 141.37 48.3778 141.543C48.311 141.716 48.306 141.907 48.3634 142.084C48.4315 142.263 48.5593 142.412 48.7252 142.508C48.904 142.594 49.1035 142.629 49.3011 142.608H50.6195L99.6023 142.636L99.5072 142.717C100.74 134.411 101.739 127.657 102.434 122.969C102.611 121.803 102.768 120.76 102.91 119.861C102.999 119.453 103.042 119.036 103.039 118.618C102.999 118.211 102.835 117.825 102.568 117.515C102.301 117.204 101.946 116.983 101.549 116.881C101.386 116.869 101.222 116.866 101.059 116.871Z" fill="#263238"/>
<path d="M84.4142 131.474C85.4762 131.474 86.3371 130.613 86.3371 129.551C86.3371 128.489 85.4762 127.629 84.4142 127.629C83.3521 127.629 82.4912 128.489 82.4912 129.551C82.4912 130.613 83.3521 131.474 84.4142 131.474Z" fill="white"/>
<path d="M66.1603 142.588C66.2032 142.588 67.1789 136.901 68.3403 129.87C69.5017 122.84 70.4108 117.128 70.368 117.124C70.3251 117.119 69.3446 122.812 68.1832 129.842C67.0219 136.872 66.1223 142.584 66.1603 142.588Z" fill="#263238"/>
</svg>
