<svg width="20" height="20" viewBox="0 0 20 20" fill="none" xmlns="http://www.w3.org/2000/svg">
<path d="M12.1924 5.21206H4.96835L5.70098 4.12337C5.79869 3.97935 5.85533 3.81143 5.86479 3.63765C5.87426 3.46386 5.83619 3.29079 5.75469 3.13701C5.67319 2.98323 5.55133 2.85456 5.40221 2.76482C5.25309 2.67509 5.08233 2.62768 4.90829 2.62769H4.90629C4.74974 2.62767 4.59519 2.66288 4.45409 2.73069C4.31299 2.7985 4.18896 2.89719 4.09116 3.01944L1.8371 5.83744C1.76618 5.92609 1.72754 6.03625 1.72754 6.14978C1.72754 6.26331 1.76618 6.37347 1.8371 6.46212L4.09141 9.27994C4.1892 9.40219 4.31324 9.50089 4.45433 9.56871C4.59543 9.63654 4.74998 9.67175 4.90654 9.67175H4.90829C5.08232 9.67175 5.25306 9.62434 5.40218 9.5346C5.55129 9.44487 5.67314 9.31621 5.75464 9.16244C5.83614 9.00867 5.87421 8.83561 5.86475 8.66183C5.8553 8.48806 5.79868 8.32014 5.70098 8.17612L4.96816 7.08706H12.1924C13.3076 7.08706 14.3772 7.53009 15.1658 8.31868C15.9544 9.10727 16.3974 10.1768 16.3974 11.2921C16.3974 12.4073 15.9544 13.4769 15.1658 14.2654C14.3772 15.054 13.3076 15.4971 12.1924 15.4971H10.1477C9.89909 15.4971 9.66063 15.5958 9.48481 15.7716C9.309 15.9475 9.21023 16.1859 9.21023 16.4346C9.21023 16.6832 9.309 16.9217 9.48481 17.0975C9.66063 17.2733 9.89909 17.3721 10.1477 17.3721H12.1924C13.8049 17.3721 15.3514 16.7315 16.4916 15.5913C17.6318 14.451 18.2724 12.9046 18.2724 11.2921C18.2724 9.67954 17.6318 8.13307 16.4916 6.99285C15.3514 5.85263 13.8049 5.21206 12.1924 5.21206Z" fill="#000"/>
</svg>
