<svg width="20" height="21" viewBox="0 0 20 21" fill="none" xmlns="http://www.w3.org/2000/svg">
<path d="M9.9997 18.625C9.59786 18.6263 9.20282 18.5213 8.85476 18.3204C8.50669 18.1196 8.218 17.8302 8.01803 17.4817C7.93449 17.338 7.91144 17.167 7.95395 17.0064C7.99645 16.8457 8.10104 16.7085 8.2447 16.625C8.38836 16.5415 8.55932 16.5184 8.71998 16.5609C8.88063 16.6034 9.01782 16.708 9.10137 16.8517C9.19853 17.0025 9.33198 17.1266 9.48951 17.2125C9.64704 17.2984 9.8236 17.3434 10.003 17.3434C10.1825 17.3434 10.359 17.2984 10.5166 17.2125C10.6741 17.1266 10.8075 17.0025 10.9047 16.8517C10.9882 16.708 11.1254 16.6034 11.2861 16.5609C11.4467 16.5184 11.6177 16.5415 11.7614 16.625C11.905 16.7085 12.0096 16.8457 12.0521 17.0064C12.0946 17.167 12.0716 17.338 11.988 17.4817C11.7875 17.8312 11.4978 18.1212 11.1484 18.3221C10.7991 18.523 10.4027 18.6275 9.9997 18.625ZM17.2289 15.7708C17.2798 15.6648 17.2999 15.5466 17.2868 15.4298C17.2737 15.3129 17.2279 15.2021 17.1547 15.11C16.2394 13.8949 15.7055 12.4355 15.6205 10.9167V7.99583C15.6205 6.5051 15.0283 5.07541 13.9742 4.0213C12.9201 2.96719 11.4904 2.375 9.9997 2.375C8.50896 2.375 7.07928 2.96719 6.02517 4.0213C4.97106 5.07541 4.37887 6.5051 4.37887 7.99583V10.9167C4.29392 12.4355 3.75997 13.8949 2.8447 15.11C2.77161 15.2021 2.72592 15.3128 2.71286 15.4296C2.6998 15.5465 2.7199 15.6646 2.77086 15.7705C2.82182 15.8764 2.90158 15.9658 3.001 16.0285C3.10042 16.0912 3.21549 16.1247 3.33303 16.125H16.6664C16.7839 16.1249 16.8991 16.0915 16.9986 16.0289C17.0981 15.9662 17.1779 15.8768 17.2289 15.7708ZM5.62887 10.9167V7.99583C5.62887 6.83662 6.08936 5.72488 6.90905 4.90519C7.72874 4.0855 8.84048 3.625 9.9997 3.625C11.1589 3.625 12.2707 4.0855 13.0903 4.90519C13.91 5.72488 14.3705 6.83662 14.3705 7.99583V10.9167C14.41 12.3112 14.8022 13.6731 15.5105 14.875H4.48887C5.19718 13.6731 5.58939 12.3112 5.62887 10.9167Z" fill="#0B0B0B"/>
</svg>
