<svg width="18" height="18" viewBox="0 0 18 18" fill="none" xmlns="http://www.w3.org/2000/svg">
<path d="M15.9077 4.88587C15.8188 3.40791 14.5847 2.25 13.0983 2.25H12.3746V1.6875C12.3746 1.377 12.1226 1.125 11.8121 1.125C11.5016 1.125 11.2496 1.377 11.2496 1.6875V2.25H6.74962V1.6875C6.74962 1.377 6.49762 1.125 6.18712 1.125C5.87662 1.125 5.62462 1.377 5.62462 1.6875V2.25H4.90096C3.41428 2.25 2.18015 3.40791 2.09156 4.88587C1.92478 7.66575 1.92787 10.4856 2.10084 13.2668C2.18859 14.6793 3.32006 15.8108 4.73249 15.8985C6.14803 15.9865 7.57368 16.0304 8.99934 16.0304C10.4247 16.0304 11.8506 15.9865 13.2662 15.8985C14.6786 15.8108 15.8101 14.6793 15.8978 13.2668C16.0711 10.487 16.0742 7.66744 15.9077 4.88587ZM14.7754 13.1971C14.7225 14.0445 14.0438 14.7232 13.1967 14.7758C10.4118 14.9487 7.58746 14.9487 4.80253 14.7758C3.95512 14.7229 3.27646 14.0442 3.22387 13.1971C3.09084 11.0588 3.06356 8.89791 3.13471 6.75H14.8648C14.9357 8.89875 14.9084 11.0596 14.7754 13.1971ZM6.18712 4.5C6.49762 4.5 6.74962 4.248 6.74962 3.9375V3.375H11.2496V3.9375C11.2496 4.248 11.5016 4.5 11.8121 4.5C12.1226 4.5 12.3746 4.248 12.3746 3.9375V3.375H13.0983C13.9907 3.375 14.7315 4.06828 14.7846 4.95309C14.7979 5.17641 14.8035 5.40112 14.8145 5.625H3.18478C3.19603 5.40112 3.20137 5.17641 3.21459 4.95309C3.26775 4.06828 4.00828 3.375 4.90096 3.375H5.62462V3.9375C5.62462 4.248 5.87662 4.5 6.18712 4.5Z" fill="#333C99"/>
<path d="M6.1875 10.125C6.65349 10.125 7.03125 9.74724 7.03125 9.28125C7.03125 8.81526 6.65349 8.4375 6.1875 8.4375C5.72151 8.4375 5.34375 8.81526 5.34375 9.28125C5.34375 9.74724 5.72151 10.125 6.1875 10.125Z" fill="#333C99"/>
<path d="M9 10.125C9.46599 10.125 9.84375 9.74724 9.84375 9.28125C9.84375 8.81526 9.46599 8.4375 9 8.4375C8.53401 8.4375 8.15625 8.81526 8.15625 9.28125C8.15625 9.74724 8.53401 10.125 9 10.125Z" fill="#333C99"/>
<path d="M6.1875 12.9375C6.65349 12.9375 7.03125 12.5597 7.03125 12.0938C7.03125 11.6278 6.65349 11.25 6.1875 11.25C5.72151 11.25 5.34375 11.6278 5.34375 12.0938C5.34375 12.5597 5.72151 12.9375 6.1875 12.9375Z" fill="#333C99"/>
<path d="M11.8125 10.125C12.2785 10.125 12.6562 9.74724 12.6562 9.28125C12.6562 8.81526 12.2785 8.4375 11.8125 8.4375C11.3465 8.4375 10.9688 8.81526 10.9688 9.28125C10.9688 9.74724 11.3465 10.125 11.8125 10.125Z" fill="#333C99"/>
<path d="M11.8125 12.9375C12.2785 12.9375 12.6562 12.5597 12.6562 12.0938C12.6562 11.6278 12.2785 11.25 11.8125 11.25C11.3465 11.25 10.9688 11.6278 10.9688 12.0938C10.9688 12.5597 11.3465 12.9375 11.8125 12.9375Z" fill="#333C99"/>
<path d="M9 12.9375C9.46599 12.9375 9.84375 12.5597 9.84375 12.0938C9.84375 11.6278 9.46599 11.25 9 11.25C8.53401 11.25 8.15625 11.6278 8.15625 12.0938C8.15625 12.5597 8.53401 12.9375 9 12.9375Z" fill="#333C99"/>
</svg>
