<svg width="56" height="34" viewBox="0 0 56 34" fill="none" xmlns="http://www.w3.org/2000/svg">
<path d="M32.5586 15.0166H28.1836C27.8419 15.0166 27.5586 14.7333 27.5586 14.3916C27.5586 14.0499 27.8419 13.7666 28.1836 13.7666H32.5586C32.9003 13.7666 33.1836 14.0499 33.1836 14.3916C33.1836 14.7333 32.9086 15.0166 32.5586 15.0166Z" fill="black"/>
<path d="M23.8085 15.65C23.6501 15.65 23.4918 15.5917 23.3668 15.4667L22.7418 14.8417C22.5001 14.6 22.5001 14.2 22.7418 13.9583C22.9835 13.7167 23.3835 13.7167 23.6251 13.9583L23.8085 14.1417L25.2418 12.7083C25.4835 12.4667 25.8835 12.4667 26.1251 12.7083C26.3668 12.95 26.3668 13.35 26.1251 13.5917L24.2501 15.4667C24.1335 15.5834 23.9751 15.65 23.8085 15.65Z" fill="black"/>
<path d="M32.5586 20.8499H28.1836C27.8419 20.8499 27.5586 20.5665 27.5586 20.2249C27.5586 19.8832 27.8419 19.5999 28.1836 19.5999H32.5586C32.9003 19.5999 33.1836 19.8832 33.1836 20.2249C33.1836 20.5665 32.9086 20.8499 32.5586 20.8499Z" fill="black"/>
<path d="M23.8085 21.4833C23.6501 21.4833 23.4918 21.4249 23.3668 21.2999L22.7418 20.6749C22.5001 20.4333 22.5001 20.0333 22.7418 19.7916C22.9835 19.5499 23.3835 19.5499 23.6251 19.7916L23.8085 19.9749L25.2418 18.5416C25.4835 18.2999 25.8835 18.2999 26.1251 18.5416C26.3668 18.7833 26.3668 19.1833 26.1251 19.4249L24.2501 21.2999C24.1335 21.4166 23.9751 21.4833 23.8085 21.4833Z" fill="black"/>
<path d="M30.3753 25.9582H25.3753C20.8503 25.9582 18.917 24.0248 18.917 19.4998V14.4998C18.917 9.97484 20.8503 8.0415 25.3753 8.0415H30.3753C34.9003 8.0415 36.8337 9.97484 36.8337 14.4998V19.4998C36.8337 24.0248 34.9003 25.9582 30.3753 25.9582ZM25.3753 9.2915C21.5337 9.2915 20.167 10.6582 20.167 14.4998V19.4998C20.167 23.3415 21.5337 24.7082 25.3753 24.7082H30.3753C34.217 24.7082 35.5837 23.3415 35.5837 19.4998V14.4998C35.5837 10.6582 34.217 9.2915 30.3753 9.2915H25.3753Z" fill="black"/>
</svg>
