<svg width="172" height="172" viewBox="0 0 172 172" fill="none" xmlns="http://www.w3.org/2000/svg">
<g clip-path="url(#clip0_295_872)">
<path d="M158.386 40.5846C136.41 23.6893 115.095 37.4584 91.3199 32.5903C67.3726 27.6866 57.832 11.3587 30.5569 18.8955C6.39558 25.5719 -8.26474 52.3387 5.01756 74.7481C8.80257 81.134 15.2506 85.9516 17.8856 93.0967C22.1363 104.623 15.6661 113.472 16.9282 124.8C22.1729 171.865 94.0507 153.635 120.499 138.991C161.977 116.027 190.037 64.9183 158.386 40.5846Z" fill="url(#paint0_linear_295_872)"/>
<path opacity="0.11" d="M138.942 137.205H132.023V69.6251C132.023 67.2443 130.093 65.314 127.712 65.314H105.148V61.7867C105.148 59.8385 103.569 58.2593 101.621 58.2593H97.0859V48.5867C97.0859 40.1896 91.0962 32.8527 82.8066 31.5133C72.1039 29.7839 62.8203 38.0006 62.8203 48.3354V58.2596H60.4889C57.3237 58.2596 54.7578 60.8255 54.7578 63.9907V65.3143H34.8532C31.0033 65.3143 27.8825 68.4624 27.8825 72.3495V137.205H20.988C18.6734 137.205 16.7969 139.081 16.7969 141.396V145.276C16.7969 149.351 20.0699 152.658 24.1126 152.658H135.795C139.837 152.658 143.11 149.352 143.11 145.276V141.373C143.109 139.071 141.244 137.205 138.942 137.205ZM70.5465 48.5175C70.5465 42.6046 75.9558 37.9401 82.0534 39.2768C86.3581 40.2205 89.3594 44.1395 89.3594 48.5463V58.5952H70.5469V48.5171L70.5465 48.5175Z" fill="#333C99"/>
<path d="M99.6239 62.3134C97.3305 62.5177 95.4062 60.7167 95.4062 58.4659V42.5391C95.4062 38.1266 92.3986 34.1988 88.0858 33.2662C81.9943 31.9494 76.5938 36.5793 76.5938 42.4471V58.3473C76.5938 60.3656 75.0955 62.1344 73.0849 62.3134C70.7914 62.5177 68.8672 60.7167 68.8672 58.4659V42.6197C68.8672 34.228 74.8502 26.8996 83.1324 25.5487C93.8411 23.8019 103.133 32.0595 103.133 42.4471V58.3473C103.133 60.366 101.635 62.1344 99.6239 62.3134Z" fill="#7985FF"/>
<path d="M138.07 66.2781V136.531C138.07 137.46 137.317 138.213 136.388 138.213H33.9297V66.2784C33.9297 62.4047 37.0687 59.2678 40.9414 59.2678H131.059C134.931 59.2674 138.07 62.4044 138.07 66.2781Z" fill="white"/>
<path d="M126.312 113.017H46.0234C45.0959 113.017 44.3438 112.265 44.3438 111.338V91.1815C44.3438 90.254 45.0959 89.5018 46.0234 89.5018H126.312C127.24 89.5018 127.992 90.254 127.992 91.1815V111.338C127.992 112.265 127.24 113.017 126.312 113.017Z" fill="#7985FF"/>
<path d="M138.07 122.76V136.533C138.07 137.461 137.318 138.213 136.391 138.213H33.9297V122.76H138.07Z" fill="#7985FF"/>
<path d="M149.156 135.431V139.255C149.156 143.316 145.864 146.611 141.798 146.611H30.2021C26.1359 146.611 22.8438 143.316 22.8438 139.255V135.349C22.8438 133.035 24.7203 131.158 27.0349 131.158H63.0047C63.6309 131.158 64.205 131.506 64.4946 132.061L66.7048 136.302C66.994 136.857 67.5681 137.205 68.1943 137.205H103.806C104.433 137.205 105.007 136.857 105.296 136.302L107.506 132.061C107.796 131.506 108.37 131.158 108.996 131.158H144.964C147.279 131.158 149.156 133.071 149.156 135.431Z" fill="white"/>
<path d="M50.0547 137.205H35.6094C34.6819 137.205 33.9297 136.453 33.9297 135.525V131.158H51.7344V135.525C51.7344 136.453 50.9822 137.205 50.0547 137.205Z" fill="white"/>
<path d="M136.055 137.205H121.609C120.682 137.205 119.93 136.453 119.93 135.525V131.158H137.734V135.525C137.734 136.453 136.982 137.205 136.055 137.205Z" fill="white"/>
<path d="M105.464 99.244H66.8717C63.7065 99.244 61.1406 96.6781 61.1406 93.5129V57.9439C61.1406 54.7787 63.7065 52.2128 66.8717 52.2128H105.464C108.629 52.2128 111.195 54.7787 111.195 57.9439V93.5126C111.195 96.6778 108.629 99.244 105.464 99.244Z" fill="white"/>
<path d="M84.5764 65.9153L80.8761 73.3725C80.1468 74.8422 80.1468 76.5686 80.8761 78.0383L84.5764 85.4954C85.1606 86.6726 86.8397 86.6726 87.4239 85.4954L91.1242 78.0383C91.8535 76.5686 91.8535 74.8422 91.1242 73.3725L87.4239 65.9153C86.8397 64.7382 85.1606 64.7382 84.5764 65.9153Z" fill="#7985FF"/>
<path d="M33.485 51.3935C32.2289 51.3935 30.9725 50.9151 30.0164 49.9587C28.104 48.0465 28.104 44.9341 30.0161 43.0212C32.2961 40.7412 36.281 41.1793 37.9059 44.3351C38.0107 44.5383 38.0971 44.7516 38.1629 44.9703C38.7196 46.8166 38.2331 48.6788 36.9536 49.9587C35.9975 50.9151 34.7414 51.3935 33.485 51.3935ZM33.5085 44.9445C33.0338 44.9445 32.5595 45.1611 32.2471 45.5938C31.8832 46.0981 31.8624 46.7978 32.2014 47.3195C32.7577 48.1762 33.9207 48.2642 34.602 47.5839C34.602 47.5836 34.602 47.5836 34.602 47.5836C34.8939 47.2917 35.0552 46.9037 35.0552 46.4905C35.0552 46.0772 34.8943 45.6889 34.602 45.3966C34.3007 45.0953 33.9046 44.9445 33.5085 44.9445Z" fill="#7985FF"/>
<path d="M57.4684 46.5953C55.6476 46.5953 53.977 45.6089 53.0686 43.8906C52.9608 43.6867 52.8721 43.4727 52.8036 43.2527C52.2261 41.3926 52.7099 39.5107 53.9995 38.221C55.912 36.3092 59.0241 36.3082 60.9366 38.2213C62.8495 40.1338 62.8495 43.246 60.9366 45.1585H60.937C60.9366 45.1585 60.9366 45.1585 60.9366 45.1585C60.0108 46.0846 58.7789 46.5953 57.4684 46.5953ZM57.4684 40.1674C57.0723 40.1674 56.6766 40.3183 56.3749 40.6196C56.083 40.9119 55.9218 41.2999 55.9218 41.7131C55.9218 42.1263 56.0827 42.5143 56.3749 42.8062C56.6672 43.0985 57.0552 43.2597 57.4684 43.2597C57.8816 43.2597 58.2696 43.0988 58.5616 42.8066C58.8226 42.8066 59.0497 42.6104 59.0742 42.3503C59.2096 40.8961 58.3392 40.1674 57.4684 40.1674Z" fill="#7985FF"/>
<path d="M152.201 119.4H151.172V118.371C151.172 117.564 150.631 116.822 149.839 116.663C148.759 116.448 147.813 117.267 147.813 118.308V119.4H146.784C145.976 119.4 145.234 119.941 145.076 120.733C144.86 121.813 145.679 122.76 146.721 122.76H147.813V123.789C147.813 124.596 148.354 125.338 149.146 125.497C150.225 125.712 151.172 124.893 151.172 123.851V122.76H152.264C153.305 122.76 154.125 121.813 153.909 120.733C153.751 119.941 153.008 119.4 152.201 119.4Z" fill="#7985FF"/>
<path d="M25.5525 116.041H24.5235V115.012C24.5235 114.204 23.9827 113.462 23.1905 113.304C22.1108 113.088 21.1641 113.908 21.1641 114.949V116.041H20.1352C19.3276 116.041 18.5855 116.582 18.4273 117.374C18.2116 118.454 19.0309 119.4 20.0724 119.4H21.1641V120.429C21.1641 121.237 21.7053 121.979 22.4971 122.137C23.5769 122.353 24.5235 121.533 24.5235 120.492V119.4H25.6153C26.6564 119.4 27.4761 118.454 27.2604 117.374C27.1022 116.582 26.3598 116.041 25.5525 116.041Z" fill="#7985FF"/>
<path d="M46.7166 30.0409H45.6876V29.0119C45.6876 28.2043 45.1464 27.4623 44.3546 27.304C43.2749 27.0884 42.3282 27.9077 42.3282 28.9491V30.0409H41.2992C40.4916 30.0409 39.7496 30.5818 39.5913 31.3739C39.3757 32.4536 40.195 33.4003 41.2364 33.4003H42.3282V34.4293C42.3282 35.2369 42.8694 35.9789 43.6612 36.1372C44.7409 36.3528 45.6876 35.5335 45.6876 34.4921V33.4003H46.7794C47.8205 33.4003 48.6401 32.4536 48.4245 31.3739C48.2662 30.5818 47.5238 30.0409 46.7166 30.0409Z" fill="#7985FF"/>
<path d="M88.9128 128.135H83.1498C82.3422 128.135 81.6001 128.676 81.4419 129.468C81.2262 130.547 82.0456 131.494 83.087 131.494H88.85C89.6576 131.494 90.3997 130.953 90.5579 130.161C90.7736 129.081 89.9539 128.135 88.9128 128.135Z" fill="#333C99"/>
<path d="M88.9282 65.1685C88.3726 64.0485 87.2502 63.3528 85.9999 63.3528C84.7495 63.3528 83.6271 64.0485 83.0715 65.1685L79.3711 72.6257C78.414 74.5539 78.414 76.8565 79.3711 78.7847L83.0715 86.2419C83.6271 87.3619 84.7495 88.0576 85.9999 88.0576C87.2502 88.0576 88.3726 87.3619 88.9282 86.2419L92.6286 78.7847C93.5857 76.8565 93.5857 74.5539 92.6286 72.6257L88.9282 65.1685ZM86.0808 66.6614L86.0805 66.6621L84.5758 65.9153L86.0808 66.6614ZM89.6192 77.2915L85.9999 84.586L82.3805 77.2915C81.8876 76.2985 81.8876 75.1123 82.3805 74.1192L85.9999 66.8247L89.6192 74.1192C90.1121 75.1123 90.1121 76.2985 89.6192 77.2915Z" fill="#333C99"/>
<path d="M129.487 86.6158C129.487 83.5386 126.983 81.0349 123.906 81.0349C120.829 81.0349 118.325 83.5386 118.325 86.6158C118.325 88.1335 118.936 89.5099 119.923 90.517C118.936 91.5242 118.325 92.9008 118.325 94.4183C118.325 95.3461 119.077 96.0979 120.005 96.0979C120.933 96.0979 121.685 95.3461 121.685 94.4183C121.685 93.1934 122.681 92.1967 123.906 92.1967C125.131 92.1967 126.128 93.1934 126.128 94.4183C126.128 95.3461 126.88 96.0979 127.807 96.0979C128.735 96.0979 129.487 95.3461 129.487 94.4183C129.487 92.9005 128.876 91.5242 127.89 90.517C128.876 89.5099 129.487 88.1335 129.487 86.6158ZM123.906 84.3942C125.131 84.3942 126.128 85.391 126.128 86.6158C126.128 87.8406 125.131 88.8373 123.906 88.8373C122.681 88.8373 121.685 87.8406 121.685 86.6158C121.685 85.391 122.681 84.3942 123.906 84.3942Z" fill="#333C99"/>
<path d="M144.948 129.566H139.672V66.3591C139.672 61.5716 135.777 57.6764 130.99 57.6764H112.67C112.468 53.7688 109.226 50.6517 105.269 50.6517H104.733V42.4067C104.733 32.0777 96.3292 23.6742 86.0001 23.6742C75.6711 23.6742 67.2676 32.0777 67.2676 42.4067V50.6517H66.7311C62.7741 50.6517 59.532 53.7688 59.3304 57.6764H41.0097C36.2223 57.6764 32.3271 61.5716 32.3271 66.3591V129.566H27.0515C23.8144 129.566 21.1807 132.2 21.1807 135.437V139.288C21.1807 144.271 25.2341 148.324 30.2164 148.324C31.1442 148.324 31.8961 147.572 31.8961 146.644C31.8961 145.717 31.1442 144.965 30.2164 144.965C27.0864 144.965 24.54 142.418 24.54 139.288V135.437C24.54 134.052 25.6668 132.925 27.0515 132.925H32.3563V135.653C32.3563 137.505 33.8633 139.012 35.7157 139.012H50.2729C52.1252 139.012 53.6322 137.505 53.6322 135.653V132.925H63.0193L65.2231 137.074C65.8073 138.173 66.9441 138.857 68.1897 138.857H103.81C105.055 138.857 106.192 138.174 106.777 137.074L108.98 132.925H118.325V135.653C118.325 137.505 119.832 139.012 121.685 139.012H136.242C138.094 139.012 139.601 137.505 139.601 135.653V132.925H144.948C146.333 132.925 147.46 134.052 147.46 135.437V139.288C147.46 142.418 144.913 144.965 141.783 144.965H39.6566C38.7287 144.965 37.9769 145.717 37.9769 146.644C37.9769 147.572 38.7287 148.324 39.6566 148.324H141.783C146.766 148.324 150.819 144.271 150.819 139.288V135.437C150.819 132.2 148.185 129.566 144.948 129.566ZM70.627 42.4067C70.627 33.93 77.5231 27.0336 86.0001 27.0336C94.4772 27.0336 101.373 33.9297 101.373 42.4067V50.6517H97.0061V42.4067C97.0061 36.3384 92.0689 31.4008 86.0001 31.4008C79.9314 31.4008 74.9942 36.338 74.9942 42.4067V50.6517H70.627V42.4067ZM93.6468 50.6517H78.3539V42.4067C78.3539 38.1904 81.7841 34.7601 86.0005 34.7601C90.2168 34.7601 93.6471 38.1904 93.6471 42.4067V50.6517H93.6468ZM41.01 61.0362H59.3207V93.5767C59.3207 97.6631 62.6451 100.988 66.7314 100.988H105.269C109.356 100.988 112.68 97.6631 112.68 93.5767V68.796C112.68 67.8681 111.928 67.1163 111 67.1163C110.072 67.1163 109.321 67.8681 109.321 68.796V93.5767C109.321 95.8104 107.503 97.6282 105.269 97.6282H66.7314C64.4978 97.6282 62.68 95.8107 62.68 93.5767V58.0624C62.68 55.8288 64.4975 54.011 66.7314 54.011H105.269C107.503 54.011 109.321 55.8285 109.321 58.0624V59.3565C109.321 60.2843 110.072 61.0362 111 61.0362H130.99C133.925 61.0362 136.313 63.424 136.313 66.3594V121.219H35.6871V66.3591C35.6871 63.424 38.075 61.0362 41.01 61.0362ZM50.2752 135.653H35.7157V132.926H50.2739L50.2752 135.653ZM106.013 131.35L103.81 135.497L68.1897 135.498L65.986 131.35C65.4021 130.25 64.2653 129.566 63.0193 129.566H35.6868V124.578H136.312V129.566H108.98C107.735 129.566 106.598 130.25 106.013 131.35ZM121.685 135.653V132.926H136.243L136.245 135.653H121.685Z" fill="#333C99"/>
</g>
<defs>
<linearGradient id="paint0_linear_295_872" x1="80.4174" y1="33.364" x2="110.65" y2="190.071" gradientUnits="userSpaceOnUse">
<stop stop-color="#D2DBFC" stop-opacity="0"/>
<stop offset="1" stop-color="#B8C1FB"/>
</linearGradient>
<clipPath id="clip0_295_872">
<rect width="172" height="172" fill="white"/>
</clipPath>
</defs>
</svg>
