<svg width="20" height="20" viewBox="0 0 20 20" fill="none" xmlns="http://www.w3.org/2000/svg">
<path d="M9.99983 13.3333C9.89016 13.3339 9.78144 13.3129 9.67991 13.2714C9.57838 13.23 9.48603 13.1689 9.40816 13.0916L4.40816 8.09162C4.25124 7.9347 4.16309 7.72187 4.16309 7.49995C4.16309 7.27803 4.25124 7.0652 4.40816 6.90828C4.56508 6.75136 4.77791 6.66321 4.99983 6.66321C5.22175 6.66321 5.43458 6.75136 5.5915 6.90828L9.99983 11.325L14.4082 6.91662C14.5676 6.7801 14.7726 6.70876 14.9824 6.71686C15.1921 6.72496 15.3911 6.8119 15.5395 6.96032C15.6879 7.10873 15.7748 7.30768 15.7829 7.51741C15.791 7.72714 15.7197 7.9322 15.5832 8.09162L10.5832 13.0916C10.4279 13.2456 10.2184 13.3324 9.99983 13.3333Z" fill="black"/>
</svg>
