<svg width="56" height="34" viewBox="0 0 56 34" fill="none" xmlns="http://www.w3.org/2000/svg">
<rect x="0.5" width="55.25" height="34" rx="17" fill="#333C99"/>
<g clip-path="url(#clip0_302_2061)">
<path d="M28.3527 8.48438C30.2391 8.48438 32.8449 8.73242 33.6809 8.89961H33.6891C34.8285 9.1207 35.9977 10.2367 36.2465 11.3398C36.5129 12.6266 36.6371 13.9098 36.641 15.3766C36.6449 16.8434 36.5129 18.1262 36.2465 19.4129C35.9977 20.516 34.8285 21.632 33.6891 21.8531H33.6809C33.1809 21.9531 32.1297 22.0719 31.0031 22.1559C30.7728 22.173 30.5497 22.2436 30.3514 22.3622C30.1532 22.4807 29.9854 22.6439 29.8613 22.8387C29.7266 23.0504 29.5824 23.2723 29.4316 23.498C28.9375 24.252 28.498 24.8766 28.125 25.3594C27.752 24.8754 27.3125 24.2508 26.8168 23.5C26.6672 23.2738 26.5234 23.052 26.3871 22.8406C26.263 22.6458 26.0952 22.4827 25.897 22.3641C25.6988 22.2456 25.4756 22.175 25.2453 22.1578C24.1188 22.0738 23.068 21.9551 22.568 21.8551H22.5598C21.4203 21.634 20.2512 20.518 20.0023 19.4148C19.7375 18.1277 19.6121 16.8438 19.6094 15.3777C19.6066 13.9117 19.7375 12.6281 20.0039 11.341C20.2527 10.2383 21.4219 9.12227 22.5613 8.90117H22.5695C23.4055 8.73242 26.0113 8.48438 27.8973 8.48438H28.109H28.1414H28.3527ZM27.8973 7C25.9883 7 23.2758 7.24453 22.2785 7.44375C20.5754 7.77422 18.9289 9.33008 18.5547 11.0285C18.3387 12.0598 18.1281 13.4629 18.125 15.3781C18.1281 17.2922 18.3387 18.6957 18.5547 19.7273C18.9309 21.4258 20.5773 22.9816 22.2805 23.3121C22.8406 23.4238 23.9426 23.5504 25.1387 23.6395C25.2741 23.8522 25.4212 24.0788 25.5801 24.3191C26.2148 25.2809 26.7004 25.9508 27.0688 26.4176C27.373 26.8047 27.7488 27 28.125 27C28.5012 27 28.877 26.8047 29.1832 26.4176C29.5516 25.9508 30.0371 25.2809 30.6719 24.3191C30.8307 24.079 30.9779 23.8525 31.1133 23.6395C32.3098 23.5504 33.4113 23.4238 33.9719 23.3121C35.675 22.9816 37.3215 21.4258 37.6977 19.7273C37.9117 18.6957 38.1219 17.293 38.1254 15.3781C38.1219 13.4641 37.9117 12.0602 37.6977 11.0285C37.3215 9.33008 35.675 7.77422 33.9719 7.44375C32.9742 7.24453 30.2621 7 28.3527 7C28.2746 7 28.1996 7 28.125 7C28.0504 7 27.9746 7 27.8973 7Z" fill="white"/>
<path d="M29.2295 21.2042C29.2036 21.3259 29.143 21.4375 29.055 21.5255C28.9671 21.6135 28.8555 21.6741 28.7338 21.6999C28.3303 21.7624 27.9197 21.7624 27.5162 21.6999C27.3945 21.6741 27.2829 21.6135 27.1949 21.5255C27.1069 21.4376 27.0463 21.326 27.0205 21.2042C26.958 20.8008 26.958 20.3901 27.0205 19.9867C27.0463 19.8649 27.1068 19.7533 27.1948 19.6653C27.2828 19.5773 27.3945 19.5167 27.5162 19.491C27.9197 19.4285 28.3303 19.4285 28.7338 19.491C28.8555 19.5168 28.9671 19.5774 29.0551 19.6654C29.1431 19.7534 29.2036 19.865 29.2295 19.9867C29.292 20.3901 29.292 20.8008 29.2295 21.2042Z" fill="white"/>
<path d="M28.0862 18.2656C27.9037 18.2654 27.7276 18.1979 27.5917 18.076C27.4558 17.9542 27.3696 17.7865 27.3495 17.6051C27.3195 17.2431 27.3507 16.8786 27.4417 16.527C27.6444 15.7305 28.1253 15.125 28.8284 14.7734C30.1175 14.132 30.2182 13.4062 30.2182 13.2C30.2062 12.9176 30.1052 12.6461 29.9296 12.4246C29.6241 12.0457 29.0952 11.8535 28.3573 11.8535C27.6565 11.8535 27.13 12.1035 26.7475 12.618C26.5747 12.8505 26.4466 13.1132 26.3698 13.3926C26.3496 13.4879 26.3108 13.5784 26.2557 13.6588C26.2006 13.7392 26.1301 13.8079 26.0484 13.861C25.9667 13.9142 25.8753 13.9507 25.7795 13.9686C25.6837 13.9864 25.5853 13.9852 25.4899 13.965C25.3946 13.9449 25.3041 13.9061 25.2237 13.8509C25.1433 13.7958 25.0746 13.7254 25.0215 13.6437C24.9683 13.562 24.9318 13.4706 24.9139 13.3748C24.8961 13.2789 24.8973 13.1805 24.9175 13.0852C25.0378 12.5961 25.255 12.1361 25.5561 11.7324C26.0186 11.1105 26.88 10.3691 28.3573 10.3691C31.0034 10.3691 31.7026 12.2207 31.7026 13.2C31.7026 13.7418 31.487 15.1094 29.4893 16.1023C28.7253 16.4824 28.821 17.4305 28.8221 17.4418C28.833 17.5388 28.8246 17.6369 28.7975 17.7306C28.7704 17.8244 28.7251 17.9118 28.6641 17.988C28.6032 18.0642 28.5278 18.1276 28.4423 18.1747C28.3568 18.2217 28.2629 18.2514 28.1659 18.2621C28.1393 18.2641 28.1116 18.2656 28.0862 18.2656Z" fill="white"/>
</g>
<defs>
<clipPath id="clip0_302_2061">
<rect width="20" height="20" fill="white" transform="translate(18.125 7)"/>
</clipPath>
</defs>
</svg>
