<svg width="56" height="34" viewBox="0 0 56 34" fill="none" xmlns="http://www.w3.org/2000/svg">
<rect y="0.828613" width="55.25" height="32.3428" rx="16.1714" fill="#333C99"/>
<path d="M19.625 16.7543C19.625 15.2023 19.625 14.4263 19.9381 13.744C20.2524 13.0617 20.841 12.5577 22.0193 11.5475L23.1621 10.568C25.2936 8.7429 26.3564 7.82861 27.625 7.82861C28.8936 7.82861 29.9575 8.74175 32.0878 10.5669L33.2307 11.5463C34.4078 12.5566 34.9975 13.0606 35.3107 13.7429C35.625 14.4252 35.625 15.2012 35.625 16.7532V21.6C35.625 23.7554 35.625 24.832 34.9553 25.5017C34.2855 26.1714 33.209 26.1714 31.0535 26.1714H24.1964C22.041 26.1714 20.9644 26.1714 20.2947 25.5017C19.625 24.832 19.625 23.7554 19.625 21.6V16.7543Z" stroke="white"/>
<path d="M30.4819 26.1713V20.4571C30.4819 20.154 30.3614 19.8633 30.1471 19.6489C29.9328 19.4346 29.6421 19.3142 29.339 19.3142H25.9104C25.6073 19.3142 25.3166 19.4346 25.1023 19.6489C24.888 19.8633 24.7676 20.154 24.7676 20.4571V26.1713" stroke="white" stroke-linecap="round" stroke-linejoin="round"/>
</svg>
