<svg width="20" height="20" viewBox="0 0 20 20" fill="none" xmlns="http://www.w3.org/2000/svg">
<path d="M12.8123 7.18176C12.8115 6.43625 12.515 5.7215 11.9879 5.19434C11.4607 4.66719 10.7459 4.37068 10.0004 4.36987C6.27262 4.51725 6.27396 9.84703 10.0005 9.99396C10.746 9.99308 11.4607 9.6965 11.9879 9.1693C12.515 8.64209 12.8115 7.9273 12.8123 7.18176ZM7.81354 7.18176C7.81423 6.60198 8.04486 6.04613 8.45483 5.63616C8.8648 5.22619 9.42064 4.99556 10.0004 4.99487C12.8949 5.0977 12.8939 9.26664 10.0004 9.36896C9.42057 9.36824 8.8647 9.13756 8.45474 8.72753C8.04477 8.31749 7.81417 7.76159 7.81354 7.18176Z" fill="#232341"/>
<path d="M11.8256 15.4439C13.5169 13.421 15.9318 10.0339 15.9318 7.18179C15.6074 -0.684804 4.39393 -0.687706 4.06836 7.18183C4.06836 10.0339 6.48323 13.421 8.17453 15.4439C6.90442 15.7347 6.13716 16.3094 6.13716 16.9996C6.13716 18.1367 8.12751 18.7501 10.0001 18.7501C11.8726 18.7501 13.863 18.1367 13.863 16.9996C13.863 16.3094 13.0957 15.7347 11.8256 15.4439ZM10.0001 1.87509C11.407 1.87671 12.7558 2.43633 13.7507 3.43118C14.7455 4.42603 15.3052 5.77486 15.3068 7.18179C15.3068 10.7493 11.03 15.4661 10.0001 16.5501C8.9701 15.4661 4.69337 10.7493 4.69337 7.1818C4.69499 5.77487 5.25461 4.42603 6.24946 3.43118C7.2443 2.43633 8.59314 1.87671 10.0001 1.87509ZM10.0001 18.1251C6.80922 18.0694 5.33815 16.6498 8.64212 15.9911C9.26441 16.7029 9.71611 17.1577 9.77943 17.2209C9.838 17.2793 9.91735 17.3121 10.0001 17.3121C10.0828 17.3121 10.1621 17.2793 10.2207 17.2209C10.284 17.1577 10.7357 16.7029 11.358 15.991C14.662 16.6498 13.1909 18.0694 10.0001 18.1251Z" fill="#232341"/>
</svg>
