<svg width="17" height="17" viewBox="0 0 17 17" fill="none" xmlns="http://www.w3.org/2000/svg">
<path fill-rule="evenodd" clip-rule="evenodd" d="M1.63112 11.2154C1.63112 12.651 2.79888 13.8169 4.23262 13.8169H12.7677C14.2015 13.8169 15.3693 12.6509 15.3693 11.2154V5.78462C15.3693 5.30549 15.2381 4.85549 15.0104 4.46927L10.8458 8.63388C10.2227 9.25876 9.38834 9.60307 8.49929 9.60307C7.61207 9.60307 6.77771 9.25876 6.15465 8.63388L1.99005 4.46927C1.76231 4.85549 1.63116 5.30546 1.63116 5.78462V11.2154H1.63112ZM4.23266 3.18312H12.7677C13.3598 3.18312 13.9064 3.3835 14.3436 3.71689L10.1371 7.92522C9.70164 8.35879 9.12052 8.59928 8.49929 8.59928C7.87989 8.59928 7.29873 8.35879 6.86334 7.92522L2.65684 3.71689C3.09402 3.3835 3.64054 3.18312 4.23266 3.18312ZM4.23266 2.17932H12.7677C14.7553 2.17932 16.373 3.79708 16.373 5.78465V11.2154C16.373 13.2048 14.7553 14.8207 12.7677 14.8207H4.23266C2.24508 14.8207 0.627328 13.2048 0.627328 11.2154V5.78462C0.627328 3.79704 2.24508 2.17932 4.23266 2.17932Z" fill="#98999C"/>
</svg>
