<svg width="17" height="17" viewBox="0 0 17 17" fill="none" xmlns="http://www.w3.org/2000/svg">
<path d="M1.93819 15.861C1.92119 15.861 1.92119 15.861 1.90419 15.861C1.68319 15.844 1.53019 15.657 1.54719 15.453C1.76819 12.206 4.82819 9.67297 8.50019 9.67297C12.1722 9.67297 15.2322 12.206 15.4532 15.436C15.4702 15.657 15.3002 15.827 15.0962 15.844C14.8752 15.861 14.7052 15.691 14.6882 15.487C14.4842 12.648 11.7642 10.438 8.50019 10.438C5.21919 10.438 2.49919 12.665 2.31219 15.504C2.29519 15.708 2.12519 15.861 1.93819 15.861Z" fill="#98999C"/>
<path d="M8.50002 8.89098C6.35802 8.89098 4.62402 7.15698 4.62402 5.01498C4.62402 2.87298 6.35802 1.13898 8.50002 1.13898C10.642 1.13898 12.376 2.87298 12.376 5.01498C12.376 7.15698 10.642 8.89098 8.50002 8.89098ZM8.50002 1.92098C6.80002 1.92098 5.40602 3.31498 5.40602 5.01498C5.40602 6.71498 6.80002 8.10898 8.50002 8.10898C10.2 8.10898 11.594 6.71498 11.594 5.01498C11.594 3.31498 10.2 1.92098 8.50002 1.92098Z" fill="#98999C"/>
<path d="M1.93819 15.8609C1.92119 15.8609 1.92119 15.8609 1.90419 15.8609C1.68319 15.8439 1.53019 15.6569 1.54719 15.4529C1.76819 12.2059 4.82819 9.67291 8.50019 9.67291C12.1722 9.67291 15.2322 12.2059 15.4532 15.4359C15.4702 15.6569 15.3002 15.8269 15.0962 15.8439C14.8752 15.8609 14.7052 15.6909 14.6882 15.4869C14.4842 12.6479 11.7642 10.4379 8.50019 10.4379C5.21919 10.4379 2.49919 12.6649 2.31219 15.5039C2.29519 15.7079 2.12519 15.8609 1.93819 15.8609Z" fill="#98999C"/>
<path d="M8.50002 8.89092C6.35802 8.89092 4.62402 7.15692 4.62402 5.01492C4.62402 2.87292 6.35802 1.13892 8.50002 1.13892C10.642 1.13892 12.376 2.87292 12.376 5.01492C12.376 7.15692 10.642 8.89092 8.50002 8.89092ZM8.50002 1.92092C6.80002 1.92092 5.40602 3.31492 5.40602 5.01492C5.40602 6.71492 6.80002 8.10892 8.50002 8.10892C10.2 8.10892 11.594 6.71492 11.594 5.01492C11.594 3.31492 10.2 1.92092 8.50002 1.92092Z" fill="#98999C"/>
</svg>
