<svg width="22" height="22" viewBox="0 0 22 22" fill="none" xmlns="http://www.w3.org/2000/svg">
<g clip-path="url(#clip0_283_5670)">
<path d="M21.45 10.4501H19.8C19.7901 10.4501 19.7821 10.4551 19.7724 10.4555C19.4938 6.0318 15.9683 2.50602 11.5446 2.22746C11.545 2.21779 11.55 2.20973 11.55 2.20007V0.550067C11.55 0.246332 11.3037 0 10.9999 0C10.6962 0 10.4501 0.246332 10.4501 0.550067V2.20007C10.4501 2.20973 10.4551 2.21799 10.4555 2.22746C6.0318 2.50602 2.50602 6.0318 2.22746 10.4555C2.21799 10.4551 2.20973 10.4501 2.20007 10.4501H0.550067C0.246332 10.4501 0 10.6962 0 10.9999C0 11.3037 0.246332 11.55 0.550067 11.55H2.20007C2.20973 11.55 2.21799 11.545 2.22746 11.5446C2.50602 15.9683 6.0318 19.4938 10.4555 19.7724C10.4551 19.7823 10.4501 19.7903 10.4501 19.8V21.45C10.4501 21.7537 10.6962 22.0001 10.9999 22.0001C11.3037 22.0001 11.55 21.7537 11.55 21.45V19.8C11.55 19.7901 11.545 19.7821 11.5446 19.7724C15.9683 19.4938 19.4938 15.9683 19.7724 11.5446C19.7823 11.545 19.7903 11.55 19.8 11.55H21.45C21.7537 11.55 22.0001 11.3037 22.0001 10.9999C22.0001 10.6962 21.7537 10.4501 21.45 10.4501ZM10.9999 18.7001C6.74744 18.7001 3.3 15.2526 3.3 10.9999C3.3 6.74744 6.74744 3.3 10.9999 3.3C15.2526 3.3 18.7001 6.74744 18.7001 10.9999C18.695 15.2506 15.2506 18.695 10.9999 18.7001Z" fill="#333C99"/>
<path d="M10.9995 6.59998C8.56946 6.59998 6.59961 8.56982 6.59961 10.9999C6.59961 13.43 8.56946 15.4 10.9995 15.4C13.4296 15.4 15.3997 13.43 15.3997 10.9999C15.3971 8.57103 13.4286 6.60259 10.9995 6.59998ZM10.9995 14.2999C9.17713 14.2999 7.69954 12.8225 7.69954 10.9999C7.69954 9.1775 9.17713 7.69991 10.9995 7.69991C12.8222 7.69991 14.2995 9.1775 14.2995 10.9999C14.2975 12.8217 12.8213 14.2979 10.9995 14.2999Z" fill="#333C99"/>
</g>
<defs>
<clipPath id="clip0_283_5670">
<rect width="22" height="22" fill="white"/>
</clipPath>
</defs>
</svg>
