<svg width="56" height="34" viewBox="0 0 56 34" fill="none" xmlns="http://www.w3.org/2000/svg">
<path d="M20.375 26V24.875C20.375 22.7864 21.2179 20.7834 22.7181 19.3065C24.2184 17.8297 26.2533 17 28.375 17M28.375 17C30.4967 17 32.5316 17.8297 34.0319 19.3065C35.5321 20.7834 36.375 22.7864 36.375 24.875V26M28.375 17C29.5874 17 30.7502 16.5259 31.6075 15.682C32.4648 14.8381 32.9464 13.6935 32.9464 12.5C32.9464 11.3065 32.4648 10.1619 31.6075 9.31802C30.7502 8.47411 29.5874 8 28.375 8C27.1626 8 25.9998 8.47411 25.1425 9.31802C24.2852 10.1619 23.8036 11.3065 23.8036 12.5C23.8036 13.6935 24.2852 14.8381 25.1425 15.682C25.9998 16.5259 27.1626 17 28.375 17Z" stroke="#1C1C1C" stroke-linecap="round" stroke-linejoin="round"/>
</svg>
