<svg width="15" height="15" viewBox="0 0 15 15" fill="none" xmlns="http://www.w3.org/2000/svg">
<g clip-path="url(#clip0_283_5983)">
<path d="M7.5 15C3.36457 15 0 11.6354 0 7.5C0 3.36457 3.36457 0 7.5 0C11.6354 0 15 3.36457 15 7.5C15 11.6354 11.6354 15 7.5 15ZM7.5 0.9375C3.88137 0.9375 0.9375 3.88137 0.9375 7.5C0.9375 11.1186 3.88137 14.0625 7.5 14.0625C11.1186 14.0625 14.0625 11.1186 14.0625 7.5C14.0625 3.88137 11.1186 0.9375 7.5 0.9375ZM11.25 7.5C11.25 7.2409 11.0404 7.03125 10.7812 7.03125H4.21875C3.95965 7.03125 3.75 7.2409 3.75 7.5C3.75 7.7591 3.95965 7.96875 4.21875 7.96875H10.7812C11.0404 7.96875 11.25 7.7591 11.25 7.5Z" fill="#98999C"/>
</g>
<defs>
<clipPath id="clip0_283_5983">
<rect width="15" height="15" fill="white"/>
</clipPath>
</defs>
</svg>
