<svg width="50" height="50" viewBox="0 0 50 50" fill="none" xmlns="http://www.w3.org/2000/svg">
<path d="M45.8332 19.2709C45.4205 19.2763 45.0262 19.4426 44.7343 19.7345C44.4425 20.0263 44.2761 20.4206 44.2707 20.8334V33.3334L35.5624 23.375C35.0091 22.786 34.341 22.3165 33.5993 21.9956C32.8576 21.6747 32.058 21.5092 31.2499 21.5092C30.4418 21.5092 29.6422 21.6747 28.9005 21.9956C28.1588 22.3165 27.4907 22.786 26.9374 23.375L20.9582 30.2084L18.9999 27.8334C18.4603 27.186 17.7849 26.6652 17.0217 26.3078C16.2585 25.9504 15.426 25.7651 14.5832 25.7651C13.7405 25.7651 12.908 25.9504 12.1448 26.3078C11.3815 26.6652 10.7062 27.186 10.1666 27.8334L5.72906 33.1875V12.5C5.73455 10.706 6.44967 8.98698 7.71826 7.71839C8.98685 6.4498 10.7058 5.73468 12.4999 5.72919H29.1666C29.581 5.72919 29.9784 5.56457 30.2714 5.27154C30.5644 4.97852 30.7291 4.58109 30.7291 4.16669C30.7291 3.75229 30.5644 3.35486 30.2714 3.06183C29.9784 2.76881 29.581 2.60419 29.1666 2.60419H12.4999C9.87535 2.60419 7.35831 3.64678 5.50248 5.50261C3.64665 7.35844 2.60406 9.87548 2.60406 12.5V37.5C2.59422 37.534 2.59422 37.5702 2.60406 37.6042C2.6315 40.2106 3.68619 42.701 5.53905 44.5344C7.39192 46.3677 9.8933 47.396 12.4999 47.3959H37.4999C40.0958 47.3907 42.5856 46.3657 44.4328 44.5419C46.28 42.7181 47.3366 40.2414 47.3749 37.6459V20.8334C47.3697 20.4242 47.2062 20.0329 46.9188 19.7416C46.6314 19.4503 46.2423 19.2816 45.8332 19.2709ZM37.4999 44.2709H12.4999C10.798 44.2654 9.16066 43.6193 7.91369 42.4611C6.66672 41.303 5.90163 39.7177 5.77073 38.0209L12.4999 29.8334C12.7519 29.5526 13.0603 29.328 13.4049 29.1742C13.7495 29.0205 14.1226 28.941 14.4999 28.941C14.8772 28.941 15.2503 29.0205 15.5949 29.1742C15.9395 29.328 16.2478 29.5526 16.4999 29.8334L19.6457 33.625C19.79 33.8005 19.9713 33.9419 20.1765 34.0391C20.3818 34.1364 20.6061 34.187 20.8332 34.1875C21.2831 34.1627 21.7071 33.9693 22.0207 33.6459L29.1874 25.4375C29.4424 25.169 29.7493 24.9551 30.0896 24.809C30.4298 24.6629 30.7963 24.5875 31.1666 24.5875C31.5369 24.5875 31.9033 24.6629 32.2435 24.809C32.5838 24.9551 32.8908 25.169 33.1457 25.4375L44.1249 37.9375C44.0203 39.6332 43.2801 41.227 42.0521 42.401C40.8241 43.5749 39.1985 44.2426 37.4999 44.2709Z" fill="#333C99"/>
<path d="M8.85449 14.5834C8.85449 15.7165 9.1905 16.8242 9.82003 17.7663C10.4496 18.7085 11.3443 19.4428 12.3912 19.8764C13.4381 20.31 14.59 20.4235 15.7014 20.2024C16.8127 19.9814 17.8336 19.4357 18.6348 18.6345C19.436 17.8332 19.9817 16.8124 20.2027 15.7011C20.4238 14.5897 20.3103 13.4378 19.8767 12.3909C19.4431 11.344 18.7088 10.4493 17.7666 9.81973C16.8245 9.1902 15.7168 8.85419 14.5837 8.85419C13.0642 8.85419 11.607 9.45779 10.5325 10.5322C9.4581 11.6066 8.85449 13.0639 8.85449 14.5834ZM17.1878 14.5834C17.1878 15.0984 17.0351 15.6019 16.7489 16.0302C16.4628 16.4584 16.0561 16.7922 15.5802 16.9893C15.1044 17.1864 14.5808 17.238 14.0756 17.1375C13.5705 17.037 13.1064 16.789 12.7422 16.4248C12.378 16.0606 12.13 15.5966 12.0295 15.0914C11.929 14.5862 11.9806 14.0626 12.1777 13.5868C12.3748 13.1109 12.7086 12.7042 13.1369 12.4181C13.5651 12.1319 14.0686 11.9792 14.5837 11.9792C15.2743 11.9792 15.9367 12.2536 16.4251 12.7419C16.9135 13.2303 17.1878 13.8927 17.1878 14.5834Z" fill="#333C99"/>
<path d="M33.333 11.9792H38.0205V16.6667C38.0205 17.0811 38.1851 17.4785 38.4782 17.7715C38.7712 18.0646 39.1686 18.2292 39.583 18.2292C39.9974 18.2292 40.3948 18.0646 40.6879 17.7715C40.9809 17.4785 41.1455 17.0811 41.1455 16.6667V11.9792H45.833C46.2474 11.9792 46.6448 11.8146 46.9379 11.5215C47.2309 11.2285 47.3955 10.8311 47.3955 10.4167C47.3955 10.0023 47.2309 9.60486 46.9379 9.31183C46.6448 9.01881 46.2474 8.85419 45.833 8.85419H41.1455V4.16669C41.1455 3.75229 40.9809 3.35486 40.6879 3.06183C40.3948 2.76881 39.9974 2.60419 39.583 2.60419C39.1686 2.60419 38.7712 2.76881 38.4782 3.06183C38.1851 3.35486 38.0205 3.75229 38.0205 4.16669V8.85419H33.333C32.9186 8.85419 32.5212 9.01881 32.2282 9.31183C31.9351 9.60486 31.7705 10.0023 31.7705 10.4167C31.7705 10.8311 31.9351 11.2285 32.2282 11.5215C32.5212 11.8146 32.9186 11.9792 33.333 11.9792Z" fill="#333C99"/>
</svg>
